<?xml version="1.0" encoding="utf-8"?>
<!-- Generator: Adobe Illustrator 21.0.0, SVG Export Plug-In . SVG Version: 6.00 Build 0)  -->
<svg version="1.1" id="Layer_1" xmlns="http://www.w3.org/2000/svg" xmlns:xlink="http://www.w3.org/1999/xlink" x="0px" y="0px"
	 viewBox="0 0 1920 1080" style="enable-background:new 0 0 1920 1080;" xml:space="preserve">
<style type="text/css">
	.st0{fill:#C41010;}
	.st1{opacity:0.33;}
	.st2{fill:#FFA733;}
	.st3{fill:#362E2B;}
	.st4{clip-path:url(#SVGID_2_);}
	.st5{fill:#FF4B00;}
	.st6{fill:#E34308;}
	.st7{fill:#C63C0F;}
	.st8{fill:#AA3417;}
	.st9{fill:#8E2C1F;}
	.st10{fill:#712526;}
	.st11{fill:#551D2E;}
	.st12{fill:#391536;}
	.st13{fill:#1C0E3D;}
	.st14{fill:#000645;}
	.st15{clip-path:url(#SVGID_2_);fill:#000645;}
	.st16{fill:#EFC1DE;}
	.st17{fill:#EBC7DE;}
	.st18{fill:#E6CDDF;}
	.st19{fill:#E2D3DF;}
	.st20{fill:#DDD9DF;}
	.st21{fill:#D9DFE0;}
	.st22{fill:#D4E5E0;}
	.st23{fill:#D0EBE0;}
	.st24{fill:#CBF1E1;}
	.st25{fill:#C7F7E1;}
	.st26{clip-path:url(#SVGID_4_);fill:#D8430C;}
	.st27{clip-path:url(#SVGID_4_);}
	.st28{fill:#E2620C;}
	.st29{fill:#F7941D;}
	.st30{fill:#FFF200;}
	.st31{fill:#F7A91D;enable-background:new    ;}
	.st32{fill:#C70000;}
	.st33{fill:#D51F00;}
	.st34{fill:#E33F00;}
	.st35{fill:#F15E00;}
	.st36{fill:#FF7D00;}
	.st37{fill:#FF9E00;}
	.st38{fill:#FFBE00;}
	.st39{fill:#FFDF00;}
	.st40{fill:#FFFF00;}
	.st41{fill:#CFDF00;}
	.st42{fill:#9FBE00;}
	.st43{fill:#6E9E00;}
	.st44{fill:#3E7D00;}
	.st45{fill:#2F5E40;}
	.st46{fill:#1F3F80;}
	.st47{fill:#101FBF;}
	.st48{fill:#0000FF;}
	.st49{fill:#1E00FF;}
	.st50{fill:#3C00FF;}
	.st51{fill:#5A00FF;}
	.st52{fill:#7800FF;}
	.st53{clip-path:url(#SVGID_6_);fill:#FFC36B;}
	.st54{clip-path:url(#SVGID_6_);}
	.st55{fill:#D2843C;}
	.st56{clip-path:url(#SVGID_6_);fill:#081211;}
	.st57{fill:#081211;}
	.st58{clip-path:url(#SVGID_6_);fill:none;}
	.st59{clip-path:url(#SVGID_6_);fill:#D2843C;}
	.st60{fill:#FC9E68;}
	.st61{fill:#FFCD77;}
	.st62{fill:#FF8B3B;}
	.st63{fill:#E67D36;}
	.st64{fill:#FFD62E;}
	.st65{fill:#81C24C;}
	.st66{fill:#AE3B35;}
	.st67{fill:#9C3430;}
	.st68{fill:#91312C;}
	.st69{fill:#322C30;}
	.st70{fill:#F5CC3A;}
	.st71{fill:#F9BA41;}
	.st72{fill:#FCD23C;}
	.st73{fill:#A97900;enable-background:new    ;}
	.st74{fill:#A97900;}
	.st75{fill:#8B3B35;}
	.st76{fill:#FFBE2E;}
	.st77{fill:#B7B7B7;}
	.st78{fill:#E0DFE0;}
	.st79{fill:#E2A803;}
	.st80{fill:#F9DA31;}
	.st81{fill:#FFFFFF;}
	.st82{fill:#F4F2FB;}
	.st83{fill:#DBDBE2;}
	.st84{fill:none;}
	.st85{fill:#EA882F;}
	.st86{fill:#B1451E;}
	.st87{fill:#FFB03A;}
	.st88{fill:#FAF2DF;}
	.st89{fill:#30352F;}
	.st90{fill:#F3E8E2;}
	.st91{fill:#484B4C;}
	.st92{fill:#DA0001;}
	.st93{fill:#59993C;}
	.st94{fill:#ECE6DA;}
	.st95{fill:#FFF9ED;}
	.st96{fill:none;stroke:#081211;stroke-miterlimit:10;}
	.st97{fill:#F38C12;}
	.st98{fill:#FFC309;}
	.st99{fill:#0C9507;}
	.st100{fill:#00530B;}
	.st101{fill:#AF1010;}
	.st102{clip-path:url(#SVGID_8_);fill:#E8F0D9;}
	.st103{clip-path:url(#SVGID_8_);}
	.st104{fill:#95C936;}
	.st105{fill:#188A45;}
	.st106{clip-path:url(#SVGID_8_);fill:#B1B2B6;}
	.st107{fill:#C1241F;}
	.st108{fill:#EA543B;}
	.st109{fill:#FFAF1A;}
	.st110{fill:#F89031;}
	.st111{fill:#F87031;}
	.st112{fill:#D8D7A0;}
	.st113{clip-path:url(#SVGID_10_);}
	.st114{fill:#E8BAD9;}
	.st115{fill:#E9C3E3;}
	.st116{opacity:0.45;clip-path:url(#SVGID_10_);enable-background:new    ;}
	.st117{fill:#21190E;}
	.st118{fill:#FFD629;}
	.st119{fill:#E97672;}
	.st120{fill:#020705;}
	.st121{fill:#E0D5CC;}
	.st122{fill:#FF4D59;}
	.st123{opacity:0.45;fill:#21190E;enable-background:new    ;}
	.st124{fill:#F28935;}
	.st125{fill:#E37B2D;}
	.st126{fill:#FDC552;}
	.st127{fill:#FFDD9A;}
	.st128{fill:none;stroke:#E53343;stroke-width:2;stroke-linecap:round;stroke-linejoin:round;stroke-miterlimit:10;}
	.st129{fill:#E53343;}
	.st130{clip-path:url(#SVGID_12_);}
	.st131{fill:#010280;}
	.st132{fill:#040F89;}
	.st133{fill:#061B92;}
	.st134{fill:#09289B;}
	.st135{fill:#0C34A4;}
	.st136{fill:#1973D1;}
	.st137{fill:#0E41AD;}
	.st138{fill:#1666C8;}
	.st139{fill:#145ABF;}
	.st140{fill:#114DB6;}
	.st141{clip-path:url(#SVGID_12_);fill:#FFFFFF;}
	.st142{clip-path:url(#SVGID_14_);fill:#660001;}
	.st143{clip-path:url(#SVGID_14_);fill:#FF3100;}
	.st144{clip-path:url(#SVGID_14_);fill:#FFCF01;}
	.st145{clip-path:url(#SVGID_14_);fill:#2B9AD2;}
	.st146{clip-path:url(#SVGID_14_);}
	.st147{fill:#FF3100;}
	.st148{fill:#FFCF01;}
	.st149{fill:#FF9C1F;}
	.st150{fill:#FF8003;}
	.st151{fill:#FFB41F;}
	.st152{fill:#EA932A;}
	.st153{fill:#FAC82B;}
	.st154{fill:#70AB57;}
	.st155{fill:#D98D2F;}
	.st156{fill:#A42A01;}
	.st157{fill:#F1BA43;}
	.st158{clip-path:url(#SVGID_16_);}
	.st159{fill:#242326;}
	.st160{fill:#0D0D0F;}
	.st161{fill:#282828;}
	.st162{fill:#7B7C7C;}
	.st163{fill:#434343;}
	.st164{fill:#545555;}
	.st165{fill:#757576;}
	.st166{fill:#999999;}
	.st167{fill:#FFE7B3;}
	.st168{fill:#B25B00;}
	.st169{fill:#CD6100;}
	.st170{fill:#E8871E;}
	.st171{fill:#FDE058;}
	.st172{fill:#FFF6BB;}
</style>
<g>
	<rect x="0" class="st0" width="1920" height="1080"/>
	<g class="st1">
		<path class="st2" d="M193.7,177c-15.4,12.8-27.4,28.6-34.9,47c-7.1-1.1-14.3-1.9-21.8-1.9c-7.5,0-14.6,0.8-21.8,1.9
			c-7.5-18.4-19.6-34.2-34.9-47c0.7-2.1,1.4-4.1,2.3-6h108.8C192.3,172.9,193.1,174.9,193.7,177z"/>
		<path class="st2" d="M467.7,177c-15.4,12.8-27.4,28.6-34.9,47c-7.1-1.1-14.3-1.9-21.8-1.9c-7.5,0-14.6,0.8-21.8,1.9
			c-7.5-18.4-19.5-34.2-35-47c0.7-2.1,1.4-4.1,2.3-6h108.8C466.2,172.9,467,174.9,467.7,177z"/>
		<path class="st2" d="M742,177c-15.4,12.8-27.4,28.6-35,47c-7.1-1.1-14.7-1.9-22.2-1.9c-7.5,0-14.6,0.8-21.8,1.9
			c-7.1-18.4-19.2-34.2-34.6-47c0.7-2.1,1.4-4.1,2.3-6h108.8C740.6,172.9,741.4,174.9,742,177z"/>
		<path class="st2" d="M1015.6,177c-15,12.8-27.1,28.6-34.6,47c-7.1-1.1-14.7-1.9-22.2-1.9c-7.5,0-14.7,0.8-21.8,1.9
			c-7.5-18.4-19.5-34.2-35-47c0.7-2.1,1.4-4.1,2.3-6h108.8C1014.2,172.9,1015,174.9,1015.6,177z"/>
		<path class="st2" d="M1290,177c-15.4,12.8-27.4,28.6-35,47c-7.1-1.1-14.6-1.9-21.8-1.9c-7.5,0-14.7,0.8-21.8,1.9
			c-7.5-18.4-19.5-34.2-34.9-47c0.7-2.1,1.4-4.1,2.3-6h108.8C1288.5,172.9,1289.3,174.9,1290,177z"/>
		<path class="st2" d="M1563.9,177c-15.4,12.8-27.4,28.6-35,47c-7.1-1.1-14.3-1.9-21.8-1.9c-7.5,0-14.7,0.8-21.8,1.9
			c-7.5-18.4-19.5-34.2-35-47c0.7-2.1,1.4-4.1,2.3-6h108.8C1562.5,172.9,1563.3,174.9,1563.9,177z"/>
		<path class="st2" d="M1837.9,177c-15.4,12.8-27.4,28.6-35,47c-7.1-1.1-14.3-1.9-21.8-1.9c-7.5,0-14.7,0.8-21.8,1.9
			c-7.5-18.4-19.5-34.2-35-47c0.7-2.1,1.4-4.1,2.3-6h108.8C1836.5,172.9,1837.2,174.9,1837.9,177z"/>
		<path class="st2" d="M106.2,225.8c-5.6,1.5-10.9,3-16.2,5.3c-15-33.8-49.6-57.5-89.8-57.5c-0.8,0-1.5,0-2.3,0V171H55
			C77.8,183,95.9,202.4,106.2,225.8z"/>
		<path class="st2" d="M81,234.8c-5.6,3-10.9,6-16.2,9.8C55,219.1,29.9,201,0.2,201c-0.8,0-1.5,0-2.3,0v-18c0.8,0,1.5,0,2.3,0
			C36.6,183,67.8,204.4,81,234.8z"/>
		<path class="st2" d="M56.9,250.6c-15.4,12.8-27.4,28.6-34.9,47c-7.1-1.1-14.6-1.9-21.8-1.9c-0.8,0-1.5,0-2.3,0v-85.3
			c0.8,0,1.5,0,2.3,0C26.9,210.4,49.4,227.3,56.9,250.6z"/>
		<path class="st2" d="M379.7,225.8c-5.6,1.5-10.9,3-16.2,5.3c-14.7-33.8-49.2-57.5-89.4-57.5c-40.2,0-74.8,23.7-89.8,57.5
			c-4.9-2.3-10.2-3.8-15.8-5.3c9.9-23.4,27.9-42.8,50.7-54.9h109.7C351.7,183,369.7,202.4,379.7,225.8z"/>
		<path class="st2" d="M274.1,201c29.7,0,54.9,18,64.6,43.6c5.3-3.8,10.5-6.8,16.2-9.8c-13.2-30.4-44.3-51.9-80.8-51.9
			c-36.5,0-67.6,21.4-80.8,51.9c5.6,2.6,11.3,6,16.2,9.8C219.3,219.4,244.4,201,274.1,201z"/>
		<path class="st2" d="M295.9,297.6c7.5-18.4,19.5-34.2,35-47c-7.5-23.3-30.1-40.2-56.7-40.2s-49.2,16.9-56.7,40.2
			c15.4,12.8,27.4,28.6,35,47c7.1-1.1,14.3-1.9,21.8-1.9C281.7,295.7,288.8,296.5,295.9,297.6z"/>
		<path class="st2" d="M654.1,225.8c-5.6,1.5-10.9,3-16.2,5.3c-15-33.8-49.6-57.5-89.8-57.5c-40.2,0-74.8,23.7-89.1,57.5
			c-5.3-2.3-10.5-3.8-16.2-5.3c9.9-23.4,27.9-42.8,50.7-54.9h109.8C626.2,183,644.2,202.4,654.1,225.8z"/>
		<path class="st2" d="M548.1,201c29.7,0,54.9,18,64.6,43.6c5.3-3.8,10.5-6.8,16.2-9.8c-13.2-30.4-44.3-51.9-80.8-51.9
			s-67.6,21.4-80.8,51.9c5.6,2.6,11.3,6,16.2,9.8C493.2,219.4,518.4,201,548.1,201z"/>
		<path class="st2" d="M569.9,297.6c7.5-18.4,19.5-34.2,35-47c-7.5-23.3-30.1-40.2-56.7-40.2s-49.2,16.9-56.7,40.2
			c15.4,12.8,27.4,28.6,35,47c7.1-1.1,14.3-1.9,21.8-1.9C555.6,295.7,562.8,296.5,569.9,297.6z"/>
		<path class="st2" d="M927.7,225.8c-5.3,1.5-10.5,3-15.8,5.3c-15-33.8-49.6-57.5-89.8-57.5c-40.2,0-74.8,23.7-89.8,57.5
			c-4.9-2.3-10.1-3.8-15.8-5.3c9.9-23.4,27.9-42.8,50.7-54.9h109.7C899.6,183,917.6,202.4,927.7,225.8z"/>
		<path class="st2" d="M822.1,201c29.7,0,54.9,18,64.6,43.6c5.3-3.8,10.5-6.8,16.2-9.8c-13.2-30.4-44.3-51.9-80.8-51.9
			s-67.6,21.4-80.8,51.9c5.6,2.6,11.3,6,16.2,9.8C767.2,219.4,792.4,201,822.1,201z"/>
		<path class="st2" d="M843.9,297.6c7.5-18.4,19.5-34.2,35-47c-7.5-23.3-30.1-40.2-56.7-40.2s-49.2,16.9-56.7,40.2
			c15.4,12.8,27.4,28.6,35,47c7.1-1.1,14.3-1.9,21.8-1.9S836.7,296.5,843.9,297.6z"/>
		<path class="st2" d="M1201.7,225.8c-5.3,1.5-10.5,3-15.8,5.3c-15-33.8-49.6-57.5-89.8-57.5c-40.2,0-74.8,23.7-89.4,57.5
			c-5.3-2.3-10.5-3.8-16.2-5.3c9.9-23.4,27.9-42.8,50.7-54.9H1151C1173.8,183,1191.8,202.4,1201.7,225.8z"/>
		<path class="st2" d="M1096,201c29.7,0,54.9,18,64.6,43.6c5.3-3.8,10.5-6.8,16.2-9.8c-13.2-30.4-44.3-51.9-80.8-51.9
			c-36.5,0-67.6,21.4-80.8,51.9c5.6,2.6,11.3,6,16.2,9.8C1041.2,219.4,1066.4,201,1096,201z"/>
		<path class="st2" d="M1117.8,297.6c7.5-18.4,19.5-34.2,35-47c-7.5-23.3-30.1-40.2-56.7-40.2c-26.7,0-49.2,16.9-56.7,40.2
			c15.4,12.8,27.4,28.6,35,47c7.1-1.1,14.3-1.9,21.8-1.9C1103.6,295.7,1110.7,296.5,1117.8,297.6z"/>
		<path class="st2" d="M1475.6,225.8c-5.3,1.5-10.5,3-15.8,5.3c-15-33.8-49.6-57.5-89.8-57.5c-40.2,0-74.8,23.7-89.8,57.5
			c-4.9-2.3-10.1-3.8-15.8-5.3c9.9-23.4,27.9-42.8,50.7-54.9h109.8C1447.7,183,1465.8,202.4,1475.6,225.8z"/>
		<path class="st2" d="M1370,201c29.7,0,54.9,18,64.6,43.6c5.3-3.8,10.5-6.8,16.2-9.8c-13.2-30.4-44.3-51.9-80.8-51.9
			c-36.5,0-67.6,21.4-80.8,51.9c5.6,2.6,11.3,6,16.2,9.8C1315.1,219.4,1340.3,201,1370,201z"/>
		<path class="st2" d="M1391.8,297.6c7.5-18.4,19.5-34.2,35-47c-7.5-23.3-30.1-40.2-56.7-40.2c-26.7,0-49.2,16.9-56.7,40.2
			c15.4,12.8,27.4,28.6,35,47c7.1-1.1,14.3-1.9,21.8-1.9C1377.5,295.7,1384.7,296.5,1391.8,297.6z"/>
		<path class="st2" d="M1750,225.8c-5.6,1.5-10.9,3-16.2,5.3c-15-33.8-49.6-57.5-89.8-57.5c-40.2,0-74.8,23.7-89.4,57.5
			c-5.3-2.3-10.5-3.8-16.2-5.3c9.9-23.4,27.9-42.8,50.7-54.9h109.9C1721.8,183,1739.9,202.4,1750,225.8z"/>
		<path class="st2" d="M1644,201c29.7,0,54.9,18,64.6,43.6c5.3-3.8,10.5-6.8,16.2-9.8c-13.2-30.4-44.3-51.9-80.8-51.9
			c-36.5,0-67.6,21.4-80.8,51.9c5.6,2.6,11.3,6,16.2,9.8C1589.1,219.4,1614.3,201,1644,201z"/>
		<path class="st2" d="M1665.8,297.6c7.5-18.4,19.5-34.2,35-47c-7.5-23.3-30.1-40.2-56.7-40.2c-26.7,0-49.2,16.9-56.7,40.2
			c15.4,12.8,27.4,28.6,35,47c7.1-1.1,14.3-1.9,21.8-1.9C1651.5,295.7,1659,296.5,1665.8,297.6z"/>
		<path class="st2" d="M1922.1,171v2.7c-1.4-0.1-2.8-0.1-4.1-0.1c-40.2,0-74.8,23.7-89.4,57.5c-4.9-2.3-10.1-3.8-15.8-5.3
			c9.9-23.4,27.9-42.8,50.7-54.9H1922.1z"/>
		<path class="st2" d="M1922.1,183.1v18.1c-1.4-0.1-2.8-0.1-4.1-0.1c-29.3,0-54.9,18.4-64.6,43.6c-4.9-3.8-10.5-7.1-16.2-9.8
			c13.2-30.4,44.4-51.9,80.8-51.9C1919.3,183,1920.7,183,1922.1,183.1z"/>
		<path class="st2" d="M1922.1,210.6v85.3c-1.4,0-2.8-0.1-4.1-0.1c-7.5,0-14.6,0.8-21.8,1.9c-7.5-18.4-19.5-34.2-35-47
			c7.5-23.3,30.1-40.2,56.8-40.2C1919.3,210.4,1920.7,210.5,1922.1,210.6z"/>
		<path class="st2" d="M137,247.6c40.2,0,74.8,23.7,89.4,57.5c5.3-2.3,10.5-3.8,16.2-5.3c-16.9-40.2-57.9-68.4-105.6-68.4
			s-88.7,28.2-105.6,68.4c5.6,1.5,10.9,3,16.2,5.3C62.2,271.3,96.8,247.6,137,247.6z"/>
		<path class="st2" d="M137,275.1c29.7,0,54.9,18,64.6,43.6c5.3-3.8,10.5-6.8,16.2-9.8c-13.2-30.4-44.3-52.2-80.8-52.2
			s-67.6,21.4-80.8,52.2c5.6,2.6,11.3,6,16.2,9.8C82.1,293.1,107.3,275.1,137,275.1z"/>
		<path class="st2" d="M158.8,371.6c7.5-18.4,19.5-34.2,35-47c-7.5-23.3-30.1-40.2-56.7-40.2s-49.2,16.9-56.7,40.2
			c15.4,12.8,27.4,28.6,35,47c7.1-1.1,14.3-1.9,21.8-1.9C144.5,369.8,151.6,370.1,158.8,371.6z"/>
		<path class="st2" d="M410.9,247.6c40.2,0,74.8,23.7,89.8,57.5c5.3-2.3,10.5-3.8,16.2-5.3c-16.9-40.2-57.9-68.4-105.6-68.4
			s-88.7,28.2-105.6,68.4c5.6,1.5,10.9,3,16.2,5.3C336.1,271.3,370.7,247.6,410.9,247.6z"/>
		<path class="st2" d="M410.9,275.1c29.7,0,54.9,18,64.6,43.6c5.3-3.8,10.5-6.8,16.2-9.8c-13.2-30.4-44.3-52.2-80.8-52.2
			s-67.6,21.4-80.8,52.2c5.6,2.6,11.3,6,16.2,9.8C356.1,293.1,381.2,275.1,410.9,275.1z"/>
		<path class="st2" d="M432.7,371.6c7.5-18.4,19.5-34.2,35-47c-7.5-23.3-30.1-40.2-56.7-40.2s-49.2,16.9-56.7,40.2
			c15.4,12.8,27.4,28.6,35,47c7.1-1.1,14.3-1.9,21.8-1.9C418.4,369.8,425.6,370.1,432.7,371.6z"/>
		<path class="st2" d="M684.9,247.6c40.2,0,74.8,23.7,89.8,57.5c5.3-2.3,10.5-3.8,16.2-5.3c-16.9-40.2-57.9-68.4-105.6-68.4
			c-47.7,0-88.7,28.2-105.6,68.4c5.6,1.5,10.9,3,15.8,5.3C610.1,271.3,644.7,247.6,684.9,247.6z"/>
		<path class="st2" d="M684.9,275.1c29.7,0,54.9,18,64.6,43.6c5.3-3.8,10.5-6.8,16.2-9.8c-13.2-30.4-44.3-52.2-80.8-52.2
			s-67.6,21.4-80.8,52.2c5.6,2.6,11.3,6,16.2,9.8C630,293.1,655.2,275.1,684.9,275.1z"/>
		<path class="st2" d="M707.1,371.6c7.5-18.4,19.5-34.2,35-47c-7.5-23.3-30.1-40.2-56.7-40.2s-49.2,16.9-56.7,40.2
			c15.4,12.8,27.4,28.6,34.6,47c7.1-1.1,14.3-1.9,21.8-1.9C692.4,369.8,699.9,370.1,707.1,371.6z"/>
		<path class="st2" d="M958.9,247.6c40.2,0,74.8,23.7,89.8,57.5c5.3-2.3,10.5-3.8,16.2-5.3c-16.9-40.2-57.9-68.4-105.6-68.4
			c-47.7,0-88.7,28.2-105.6,68.4c5.6,1.5,10.9,3,15.8,5.3C884.1,271.3,918.7,247.6,958.9,247.6z"/>
		<path class="st2" d="M958.9,275.1c29.7,0,54.9,18,64.6,43.6c5.3-3.8,10.5-6.8,16.2-9.8c-13.2-30.4-44.3-52.2-80.8-52.2
			c-36.5,0-67.6,21.4-80.8,52.2c5.6,2.6,11.3,6,16.2,9.8C904,293.1,929.6,275.1,958.9,275.1z"/>
		<path class="st2" d="M981,371.6c7.5-18.4,19.5-34.2,34.6-47c-7.5-23.3-30.1-40.2-56.7-40.2s-49.2,16.9-56.7,40.2
			c15.4,12.8,27.4,28.6,35,47c7.1-1.1,14.3-1.9,21.8-1.9C966.4,369.8,973.9,370.1,981,371.6z"/>
		<path class="st2" d="M1232.8,247.6c40.2,0,74.8,23.7,89.8,57.5c5.3-2.3,10.5-3.8,15.8-5.3c-16.9-40.2-57.9-68.4-105.6-68.4
			s-88.7,28.2-105.6,68.4c5.6,1.5,10.9,3,15.8,5.3C1158.1,271.3,1192.6,247.6,1232.8,247.6z"/>
		<path class="st2" d="M1232.8,275.1c29.7,0,54.9,18,64.6,43.6c5.3-3.8,10.5-6.8,16.2-9.8c-13.2-30.4-44.3-52.2-80.8-52.2
			s-67.6,21.4-80.8,52.2c5.6,2.6,11.3,6,16.2,9.8C1178,293.1,1203.5,275.1,1232.8,275.1z"/>
		<path class="st2" d="M1255,371.6c7.5-18.4,19.5-34.2,35-47c-7.5-23.3-30.1-40.2-56.7-40.2c-26.7,0-49.2,16.9-56.7,40.2
			c15.4,12.8,27.4,28.6,35,47c7.1-1.1,14.3-1.9,21.8-1.9C1240.4,369.8,1247.9,370.1,1255,371.6z"/>
		<path class="st2" d="M1507.2,247.6c40.2,0,74.8,23.7,89.8,57.5c5.3-2.3,10.5-3.8,16.2-5.3c-16.9-40.2-57.9-68.4-105.6-68.4
			c-47.7,0-88.7,28.2-105.6,68.4c5.6,1.5,10.9,3,16.2,5.3C1432.4,271.3,1467,247.6,1507.2,247.6z"/>
		<path class="st2" d="M1507.2,275.1c29.7,0,54.9,18,64.6,43.6c5.3-3.8,10.5-6.8,16.2-9.8c-13.2-30.4-44.3-52.2-80.8-52.2
			c-36.5,0-67.6,21.4-80.8,52.2c5.6,2.6,11.3,6,16.2,9.8C1451.9,293.1,1477.5,275.1,1507.2,275.1z"/>
		<path class="st2" d="M1529,371.6c7.5-18.4,19.5-34.2,35-47c-7.5-23.3-30.1-40.2-56.7-40.2c-26.7,0-49.2,16.9-56.7,40.2
			c15.4,12.8,27.4,28.6,35,47c7.1-1.1,14.3-1.9,21.8-1.9C1514.7,369.8,1521.8,370.1,1529,371.6z"/>
		<path class="st2" d="M1781.2,247.6c40.2,0,74.8,23.7,89.8,57.5c5.3-2.3,10.5-3.8,15.8-5.3c-16.9-40.2-57.9-68.4-105.6-68.4
			c-47.7,0-88.7,28.2-105.6,68.4c5.6,1.5,10.9,3,16.2,5.3C1706.4,271.3,1740.9,247.6,1781.2,247.6z"/>
		<path class="st2" d="M1781.2,275.1c29.7,0,54.9,18,64.6,43.6c5.3-3.8,10.5-6.8,16.2-9.8c-13.2-30.4-44.3-52.2-80.8-52.2
			c-36.5,0-67.6,21.4-80.8,52.2c5.6,2.6,11.3,6,16.2,9.8C1726.3,293.1,1751.5,275.1,1781.2,275.1z"/>
		<path class="st2" d="M1803,371.6c7.5-18.4,19.5-34.2,35-47c-7.5-23.3-30.1-40.2-56.7-40.2c-26.7,0-49.2,16.9-56.7,40.2
			c15.4,12.8,27.4,28.6,35,47c7.1-1.1,14.3-1.9,21.8-1.9C1788.7,369.8,1795.8,370.1,1803,371.6z"/>
		<path class="st2" d="M106.2,373.5c-5.6,1.5-10.9,3-16.2,5.3C75,345,40.4,321.3,0.2,321.3c-0.8,0-1.5,0-2.3,0v-16.2
			c0.8,0,1.5,0,2.3,0C47.9,305.1,88.5,333.3,106.2,373.5z"/>
		<path class="st2" d="M81,382.5c-5.6,3-10.9,6-16.2,9.8c-9.8-25.6-34.9-43.6-64.6-43.6c-0.8,0-1.5,0-2.3,0v-18.1c0.8,0,1.5,0,2.3,0
			C36.6,330.7,67.8,352.1,81,382.5z"/>
		<path class="st2" d="M56.9,398.3c-15.4,12.4-27.4,28.6-34.9,47c-7.1-1.1-14.6-1.9-21.8-1.9c-0.8,0-1.5,0-2.3,0v-85.3
			c0.8,0,1.5,0,2.3,0C26.9,358.1,49.4,375,56.9,398.3z"/>
		<path class="st2" d="M274.1,321.3c40.2,0,74.8,23.7,89.4,57.5c5.3-2.3,10.5-3.8,16.2-5.3c-17.3-40.2-57.9-68.4-105.6-68.4
			s-88.7,28.2-105.6,68.4c5.6,1.5,10.9,3,15.8,5.3C199.3,345,233.9,321.3,274.1,321.3z"/>
		<path class="st2" d="M274.1,348.7c29.7,0,54.9,18,64.6,43.6c5.3-3.8,10.5-6.8,16.2-9.8c-13.2-30.4-44.3-51.9-80.8-51.9
			c-36.5,0-67.6,21.4-80.8,51.9c5.6,3,11.3,6,16.2,9.8C219.3,366.7,244.4,348.7,274.1,348.7z"/>
		<path class="st2" d="M295.9,445.3c7.5-18.4,19.5-34.6,35-47c-7.5-23.3-30.1-40.2-56.7-40.2s-49.2,16.9-56.7,40.2
			c15.4,12.4,27.4,28.6,35,47c7.1-1.1,14.3-1.9,21.8-1.9C281.7,443.4,288.8,444.2,295.9,445.3z"/>
		<path class="st2" d="M548.1,321.3c40.2,0,74.8,23.7,89.8,57.5c5.3-2.3,10.5-3.8,16.2-5.3c-16.9-40.2-57.9-68.4-105.6-68.4
			c-47.7,0-88.7,28.2-105.6,68.4c5.6,1.5,10.9,3,16.2,5.3C473.3,345,507.9,321.3,548.1,321.3z"/>
		<path class="st2" d="M548.1,348.7c29.7,0,54.9,18,64.6,43.6c5.3-3.8,10.5-6.8,16.2-9.8c-13.2-30.4-44.3-51.9-80.8-51.9
			s-67.6,21.4-80.8,51.9c5.6,3,11.3,6,16.2,9.8C493.2,366.7,518.4,348.7,548.1,348.7z"/>
		<path class="st2" d="M569.9,445.3c7.5-18.4,19.5-34.6,35-47c-7.5-23.3-30.1-40.2-56.7-40.2s-49.2,16.9-56.7,40.2
			c15.4,12.4,27.4,28.6,35,47c7.1-1.1,14.3-1.9,21.8-1.9C555.6,443.4,562.8,444.2,569.9,445.3z"/>
		<path class="st2" d="M822.1,321.3c40.2,0,74.8,23.7,89.8,57.5c5.3-2.3,10.5-3.8,15.8-5.3c-17.3-40.2-57.9-68.4-105.6-68.4
			s-88.7,28.2-105.6,68.4c5.6,1.5,10.9,3,15.8,5.3C747.3,345,781.9,321.3,822.1,321.3z"/>
		<path class="st2" d="M822.1,348.7c29.7,0,54.9,18,64.6,43.6c5.3-3.8,10.5-6.8,16.2-9.8c-13.2-30.4-44.3-51.9-80.8-51.9
			s-67.6,21.4-80.8,51.9c5.6,3,11.3,6,16.2,9.8C767.2,366.7,792.4,348.7,822.1,348.7z"/>
		<path class="st2" d="M843.9,445.3c7.5-18.4,19.5-34.6,35-47c-7.5-23.3-30.1-40.2-56.7-40.2s-49.2,16.9-56.7,40.2
			c15.4,12.4,27.4,28.6,35,47c7.1-1.1,14.3-1.9,21.8-1.9S836.7,444.2,843.9,445.3z"/>
		<path class="st2" d="M1096,321.3c40.2,0,74.8,23.7,89.8,57.5c5.3-2.3,10.5-3.8,15.8-5.3c-16.9-40.2-57.9-68.4-105.6-68.4
			c-47.7,0-88.7,28.2-105.6,68.4c5.6,1.5,10.9,3,16.2,5.3C1021.3,345,1055.8,321.3,1096,321.3z"/>
		<path class="st2" d="M1096,348.7c29.7,0,54.9,18,64.6,43.6c5.3-3.8,10.5-6.8,16.2-9.8c-13.2-30.4-44.3-51.9-80.8-51.9
			c-36.5,0-67.6,21.4-80.8,51.9c5.6,3,11.3,6,16.2,9.8C1041.2,366.7,1066.4,348.7,1096,348.7z"/>
		<path class="st2" d="M1117.8,445.3c7.5-18.4,19.5-34.6,35-47c-7.5-23.3-30.1-40.2-56.7-40.2c-26.7,0-49.2,16.9-56.7,40.2
			c15.4,12.4,27.4,28.6,35,47c7.1-1.1,14.3-1.9,21.8-1.9C1103.6,443.4,1110.7,444.2,1117.8,445.3z"/>
		<path class="st2" d="M1370,321.3c40.2,0,74.8,23.7,89.8,57.5c5.3-2.3,10.5-3.8,15.8-5.3c-16.9-40.2-57.9-68.4-105.6-68.4
			c-47.7,0-88.7,28.2-105.6,68.4c5.6,1.5,10.9,3,15.8,5.3C1295.2,345,1329.8,321.3,1370,321.3z"/>
		<path class="st2" d="M1370,348.7c29.7,0,54.9,18,64.6,43.6c5.3-3.8,10.5-6.8,16.2-9.8c-13.2-30.4-44.3-51.9-80.8-51.9
			c-36.5,0-67.6,21.4-80.8,51.9c5.6,3,11.3,6,16.2,9.8C1315.1,366.7,1340.3,348.7,1370,348.7z"/>
		<path class="st2" d="M1391.8,445.3c7.5-18.4,19.5-34.6,35-47c-7.5-23.3-30.1-40.2-56.7-40.2c-26.7,0-49.2,16.9-56.7,40.2
			c15.4,12.4,27.4,28.6,35,47c7.1-1.1,14.3-1.9,21.8-1.9C1377.5,443.4,1384.7,444.2,1391.8,445.3z"/>
		<path class="st2" d="M1644,321.3c40.2,0,74.8,23.7,89.8,57.5c5.3-2.3,10.5-3.8,16.2-5.3c-16.9-40.2-57.9-68.4-105.6-68.4
			s-88.7,28.2-105.6,68.4c5.6,1.5,10.9,3,16.2,5.3C1569.2,345,1603.8,321.3,1644,321.3z"/>
		<path class="st2" d="M1644,348.7c29.7,0,54.9,18,64.6,43.6c5.3-3.8,10.5-6.8,16.2-9.8c-13.2-30.4-44.7-51.9-80.8-51.9
			c-36.5,0-67.6,21.4-80.8,51.9c5.6,3,11.3,6,16.2,9.8C1589.1,366.7,1614.3,348.7,1644,348.7z"/>
		<path class="st2" d="M1665.8,445.3c7.5-18.4,19.5-34.6,35-47c-7.5-23.3-30.1-40.2-56.7-40.2c-26.7,0-49.2,16.9-56.7,40.2
			c15.4,12.4,27.4,28.6,35,47c7.1-1.1,14.3-1.9,21.8-1.9C1651.5,443.4,1659,444.2,1665.8,445.3z"/>
		<path class="st2" d="M1922.1,305.2v16.2c-1.4-0.1-2.8-0.1-4.1-0.1c-40.2,0-74.8,23.7-89.4,57.5c-4.9-2.2-10.1-3.8-15.8-5.3
			c16.9-40.2,57.9-68.4,105.6-68.4C1919.6,305.1,1920.8,305.1,1922.1,305.2z"/>
		<path class="st2" d="M1922.1,330.8v18.1c-1.4-0.1-2.8-0.1-4.1-0.1c-29.3,0-54.9,18-64.6,43.6c-4.9-3.8-10.5-6.8-16.2-9.8
			c13.2-30.4,44.4-51.9,80.8-51.9C1919.3,330.7,1920.7,330.7,1922.1,330.8z"/>
		<path class="st2" d="M1922.1,358.2v85.2c-1.4,0-2.8-0.1-4.1-0.1c-7.5,0-14.6,0.8-21.8,1.9c-7.5-18.4-19.5-34.6-35-47
			c7.5-23.3,30.1-40.2,56.8-40.2C1919.3,358.1,1920.7,358.2,1922.1,358.2z"/>
		<path class="st2" d="M137,395.3c40.2,0,74.8,23.7,89.4,57.5c5.3-2.3,10.5-3.8,16.2-5.3c-16.9-40.2-57.9-68.8-105.6-68.8
			S48.3,407,31.4,447.2c5.6,1.5,10.9,3,16.2,5.3C62.2,419,96.8,395.3,137,395.3z"/>
		<path class="st2" d="M137,422.7c29.7,0,54.9,18,64.6,43.6c5.3-3.8,10.5-6.8,16.2-9.8c-13.2-30.4-44.3-51.9-80.8-51.9
			s-67.6,21.4-80.8,51.9c5.6,2.6,11.3,6,16.2,9.8C82.1,440.8,107.3,422.7,137,422.7z"/>
		<path class="st2" d="M158.8,519c7.5-18.4,19.5-34.2,35-47c-7.5-23.3-30.1-40.2-56.7-40.2S87.7,448.7,80.2,472
			c15.4,12.8,27.4,28.6,35,47c7.1-1.1,14.3-1.9,21.8-1.9C144.5,517.1,151.6,517.8,158.8,519z"/>
		<path class="st2" d="M410.9,395.3c40.2,0,74.8,23.7,89.8,57.5c5.3-2.3,10.5-3.8,16.2-5.3c-16.9-40.2-57.9-68.4-105.6-68.4
			s-88.7,28.2-105.6,68.4c5.6,1.5,10.9,3,16.2,5.3C336.1,419,370.7,395.3,410.9,395.3z"/>
		<path class="st2" d="M410.9,422.7c29.7,0,54.9,18,64.6,43.6c5.3-3.8,10.5-6.8,16.2-9.8c-13.2-30.4-44.3-51.9-80.8-51.9
			s-67.6,21.4-80.8,51.9c5.6,2.6,11.3,6,16.2,9.8C356.1,440.8,381.2,422.7,410.9,422.7z"/>
		<path class="st2" d="M432.7,519c7.5-18.4,19.5-34.2,35-47c-7.5-23.3-30.1-40.2-56.7-40.2s-49.2,16.9-56.7,40.2
			c15.4,12.8,27.4,28.6,35,47c7.1-1.1,14.3-1.9,21.8-1.9C418.4,517.1,425.6,517.8,432.7,519z"/>
		<path class="st2" d="M684.9,395.3c40.2,0,74.8,23.7,89.8,57.5c5.3-2.3,10.5-3.8,16.2-5.3c-16.9-40.2-57.9-68.4-105.6-68.4
			c-47.7,0-88.7,28.2-105.6,68.4c5.6,1.5,10.9,3,15.8,5.3C610.1,419,644.7,395.3,684.9,395.3z"/>
		<path class="st2" d="M684.9,422.7c29.7,0,54.9,18,64.6,43.6c5.3-3.8,10.5-6.8,16.2-9.8c-13.2-30.4-44.3-51.9-80.8-51.9
			s-67.6,21.4-80.8,51.9c5.6,2.6,11.3,6,16.2,9.8C630,440.8,655.2,422.7,684.9,422.7z"/>
		<path class="st2" d="M707.1,519c7.5-18.4,19.5-34.2,35-47c-7.5-23.3-30.1-40.2-56.7-40.2S636,448.7,628.5,472
			c15.4,12.8,27.4,28.6,34.6,47c7.1-1.1,14.3-1.9,21.8-1.9C692.4,517.1,699.9,517.8,707.1,519z"/>
		<path class="st2" d="M958.9,395.3c40.2,0,74.8,23.7,89.8,57.5c5.3-2.3,10.5-3.8,16.2-5.3c-16.9-40.2-57.9-68.4-105.6-68.4
			c-47.7,0-88.7,28.2-105.6,68.4c5.6,1.5,10.9,3,15.8,5.3C884.1,419,918.7,395.3,958.9,395.3z"/>
		<path class="st2" d="M958.9,422.7c29.7,0,54.9,18,64.6,43.6c5.3-3.8,10.5-6.8,16.2-9.8c-13.2-30.4-44.3-51.9-80.8-51.9
			c-36.5,0-67.6,21.4-80.8,51.9c5.6,2.6,11.3,6,16.2,9.8C904,440.8,929.6,422.7,958.9,422.7z"/>
		<path class="st2" d="M981,519c7.5-18.4,19.5-34.2,34.6-47c-7.5-23.3-30.1-40.2-56.7-40.2s-49.2,16.9-56.7,40.2
			c15.4,12.8,27.4,28.6,35,47c7.1-1.1,14.3-1.9,21.8-1.9C966.4,517.1,973.9,517.8,981,519z"/>
		<path class="st2" d="M1232.8,395.3c40.2,0,74.8,23.7,89.8,57.5c5.3-2.3,10.5-3.8,15.8-5.3c-16.9-40.2-57.9-68.4-105.6-68.4
			s-88.7,28.2-105.6,68.4c5.6,1.5,10.9,3,15.8,5.3C1158.1,419,1192.6,395.3,1232.8,395.3z"/>
		<path class="st2" d="M1232.8,422.7c29.7,0,54.9,18,64.6,43.6c5.3-3.8,10.5-6.8,16.2-9.8c-13.2-30.4-44.3-51.9-80.8-51.9
			s-67.6,21.4-80.8,51.9c5.6,2.6,11.3,6,16.2,9.8C1178,440.8,1203.5,422.7,1232.8,422.7z"/>
		<path class="st2" d="M1255,519c7.5-18.4,19.5-34.2,35-47c-7.5-23.3-30.1-40.2-56.7-40.2c-26.7,0-49.2,16.9-56.7,40.2
			c15.4,12.8,27.4,28.6,35,47c7.1-1.1,14.3-1.9,21.8-1.9C1240.4,517.1,1247.9,517.8,1255,519z"/>
		<path class="st2" d="M1507.2,395.3c40.2,0,74.8,23.7,89.8,57.5c5.3-2.3,10.5-3.8,16.2-5.3c-16.9-40.2-57.9-68.4-105.6-68.4
			c-47.7,0-88.7,28.2-105.6,68.4c5.6,1.5,10.9,3,16.2,5.3C1432.4,419,1467,395.3,1507.2,395.3z"/>
		<path class="st2" d="M1507.2,422.7c29.7,0,54.9,18,64.6,43.6c5.3-3.8,10.5-6.8,16.2-9.8c-13.2-30.4-44.3-51.9-80.8-51.9
			c-36.5,0-67.6,21.4-80.8,51.9c5.6,2.6,11.3,6,16.2,9.8C1451.9,440.8,1477.5,422.7,1507.2,422.7z"/>
		<path class="st2" d="M1529,519c7.5-18.4,19.5-34.2,35-47c-7.5-23.3-30.1-40.2-56.7-40.2c-26.7,0-49.2,16.9-56.7,40.2
			c15.4,12.8,27.4,28.6,35,47c7.1-1.1,14.3-1.9,21.8-1.9C1514.7,517.1,1521.8,517.8,1529,519z"/>
		<path class="st2" d="M1781.2,395.3c40.2,0,74.8,23.7,89.8,57.5c5.3-2.3,10.5-3.8,15.8-5.3c-16.9-40.2-57.9-68.4-105.6-68.4
			c-47.7,0-88.7,28.2-105.6,68.4c5.6,1.5,10.9,3,16.2,5.3C1706.4,419,1740.9,395.3,1781.2,395.3z"/>
		<path class="st2" d="M1781.2,422.7c29.7,0,54.9,18,64.6,43.6c5.3-3.8,10.5-6.8,16.2-9.8c-13.2-30.4-44.3-51.9-80.8-51.9
			c-36.5,0-67.6,21.4-80.8,51.9c5.6,2.6,11.3,6,16.2,9.8C1726.3,440.8,1751.5,422.7,1781.2,422.7z"/>
		<path class="st2" d="M1803,519c7.5-18.4,19.5-34.2,35-47c-7.5-23.3-30.1-40.2-56.7-40.2c-26.7,0-49.2,16.9-56.7,40.2
			c15.4,12.8,27.4,28.6,35,47c7.1-1.1,14.3-1.9,21.8-1.9C1788.7,517.1,1795.8,517.8,1803,519z"/>
		<path class="st2" d="M106.2,521.2c-5.6,1.5-10.9,3.4-16.2,5.3C75,492.6,40.4,469,0.2,469c-0.8,0-1.5,0-2.3,0v-16.2
			c0.9,0,1.8,0,2.6,0C48.3,452.8,89.2,481,106.2,521.2z"/>
		<path class="st2" d="M81,530.2c-5.6,3-10.9,6-16.2,9.8c-9.8-25.6-34.9-43.6-64.6-43.6c-0.8,0-1.5,0-2.3,0v-18.1c0.8,0,1.5,0,2.3,0
			C36.6,478.4,67.8,499.8,81,530.2z"/>
		<path class="st2" d="M56.9,546c-15.4,12.4-27.4,28.6-34.9,47c-7.1-1.5-14.6-1.9-21.8-1.9c-0.8,0-1.5,0-2.3,0v-85.3
			c0.8,0,1.5,0,2.3,0C26.9,505.8,49.4,522.7,56.9,546z"/>
		<path class="st2" d="M274.1,469c40.2,0,74.8,23.7,89.4,57.5c5.3-1.9,10.5-3.8,16.2-5.3c-17.3-40.2-57.9-68.4-105.6-68.4
			s-88.7,28.2-105.6,68.4c5.6,1.5,10.9,3,15.8,5.3C199.3,492.6,233.9,469,274.1,469z"/>
		<path class="st2" d="M274.1,496.4c29.7,0,54.9,18,64.6,43.6c5.3-3.8,10.5-6.8,16.2-9.8c-13.2-30.4-44.3-51.9-80.8-51.9
			c-36.5,0-67.6,21.4-80.8,51.9c5.6,3,11.3,6,16.2,9.8C219.3,514.4,244.4,496.4,274.1,496.4z"/>
		<path class="st2" d="M295.9,593c7.5-18.4,19.5-34.6,35-47c-7.5-23.3-30.1-40.2-56.7-40.2s-49.2,16.9-56.7,40.2
			c15.4,12.8,27.4,28.6,35,47c7.1-1.1,14.3-1.9,21.8-1.9C281.7,591.1,288.8,591.5,295.9,593z"/>
		<path class="st2" d="M548.1,469c40.2,0,74.8,23.7,89.8,57.5c5.3-1.9,10.5-3.8,16.2-5.3c-16.9-40.2-57.9-68.4-105.6-68.4
			c-47.7,0-88.7,28.2-105.6,68.4c5.6,1.5,10.9,3,16.2,5.3C473.3,492.6,507.9,469,548.1,469z"/>
		<path class="st2" d="M548.1,496.4c29.7,0,54.9,18,64.6,43.6c5.3-3.8,10.5-6.8,16.2-9.8c-13.2-30.4-44.3-51.9-80.8-51.9
			s-67.6,21.4-80.8,51.9c5.6,3,11.3,6,16.2,9.8C493.2,514.4,518.4,496.4,548.1,496.4z"/>
		<path class="st2" d="M569.9,593c7.5-18.4,19.5-34.6,35-47c-7.5-23.3-30.1-40.2-56.7-40.2s-49.2,16.9-56.7,40.2
			c15.4,12.8,27.4,28.6,35,47c7.1-1.1,14.3-1.9,21.8-1.9C555.6,591.1,562.8,591.5,569.9,593z"/>
		<path class="st2" d="M822.1,469c40.2,0,74.8,23.7,89.8,57.5c5.3-1.9,10.5-3.8,15.8-5.3c-17.3-40.2-57.9-68.4-105.6-68.4
			s-88.7,28.2-105.6,68.4c5.6,1.5,10.9,3,15.8,5.3C747.3,492.6,781.9,469,822.1,469z"/>
		<path class="st2" d="M822.1,496.4c29.7,0,54.9,18,64.6,43.6c5.3-3.8,10.5-6.8,16.2-9.8c-13.2-30.4-44.3-51.9-80.8-51.9
			s-67.6,21.4-80.8,51.9c5.6,3,11.3,6,16.2,9.8C767.2,514.4,792.4,496.4,822.1,496.4z"/>
		<path class="st2" d="M843.9,593c7.5-18.4,19.5-34.6,35-47c-7.5-23.3-30.1-40.2-56.7-40.2s-49.2,16.9-56.7,40.2
			c15.4,12.8,27.4,28.6,35,47c7.1-1.1,14.3-1.9,21.8-1.9S836.7,591.5,843.9,593z"/>
		<path class="st2" d="M1096,469c40.2,0,74.8,23.7,89.8,57.5c5.3-1.9,10.5-3.8,15.8-5.3c-16.9-40.2-57.9-68.4-105.6-68.4
			c-47.7,0-88.7,28.2-105.6,68.4c5.6,1.5,10.9,3,16.2,5.3C1021.3,492.6,1055.8,469,1096,469z"/>
		<path class="st2" d="M1096,496.4c29.7,0,54.9,18,64.6,43.6c5.3-3.8,10.5-6.8,16.2-9.8c-13.2-30.4-44.3-51.9-80.8-51.9
			c-36.5,0-67.6,21.4-80.8,51.9c5.6,3,11.3,6,16.2,9.8C1041.2,514.4,1066.4,496.4,1096,496.4z"/>
		<path class="st2" d="M1117.8,593c7.5-18.4,19.5-34.6,35-47c-7.5-23.3-30.1-40.2-56.7-40.2c-26.7,0-49.2,16.9-56.7,40.2
			c15.4,12.8,27.4,28.6,35,47c7.1-1.1,14.3-1.9,21.8-1.9C1103.6,591.1,1110.7,591.5,1117.8,593z"/>
		<path class="st2" d="M1370,469c40.2,0,74.8,23.7,89.8,57.5c5.3-1.9,10.5-3.8,15.8-5.3c-16.9-40.2-57.9-68.4-105.6-68.4
			c-47.7,0-88.7,28.2-105.6,68.4c5.6,1.5,10.9,3,15.8,5.3C1295.2,492.6,1329.8,469,1370,469z"/>
		<path class="st2" d="M1370,496.4c29.7,0,54.9,18,64.6,43.6c5.3-3.8,10.5-6.8,16.2-9.8c-13.2-30.4-44.3-51.9-80.8-51.9
			c-36.5,0-67.6,21.4-80.8,51.9c5.6,3,11.3,6,16.2,9.8C1315.1,514.4,1340.3,496.4,1370,496.4z"/>
		<path class="st2" d="M1391.8,593c7.5-18.4,19.5-34.6,35-47c-7.5-23.3-30.1-40.2-56.7-40.2c-26.7,0-49.2,16.9-56.7,40.2
			c15.4,12.8,27.4,28.6,35,47c7.1-1.1,14.3-1.9,21.8-1.9C1377.5,591.1,1384.7,591.5,1391.8,593z"/>
		<path class="st2" d="M1644,469c40.2,0,74.8,23.7,89.8,57.5c5.3-1.9,10.5-3.8,16.2-5.3c-16.9-40.2-57.9-68.4-105.6-68.4
			s-88.7,28.2-105.6,68.4c5.6,1.5,10.9,3,16.2,5.3C1569.2,492.6,1603.8,469,1644,469z"/>
		<path class="st2" d="M1644,496.4c29.7,0,54.9,18,64.6,43.6c5.3-3.8,10.5-6.8,16.2-9.8c-13.2-30.4-44.7-51.9-80.8-51.9
			c-36.5,0-67.6,21.4-80.8,51.9c5.6,3,11.3,6,16.2,9.8C1589.1,514.4,1614.3,496.4,1644,496.4z"/>
		<path class="st2" d="M1665.8,593c7.5-18.4,19.5-34.6,35-47c-7.5-23.3-30.1-40.2-56.7-40.2c-26.7,0-49.2,16.9-56.7,40.2
			c15.4,12.8,27.4,28.6,35,47c7.1-1.1,14.3-1.9,21.8-1.9C1651.5,591.1,1659,591.5,1665.8,593z"/>
		<path class="st2" d="M1922.1,452.9v16.2c-1.4-0.1-2.8-0.1-4.1-0.1c-40.2,0-74.8,23.7-89.4,57.5c-4.9-2.3-10.1-3.8-15.8-5.3
			c16.9-40.2,57.9-68.4,105.6-68.4C1919.6,452.8,1920.8,452.8,1922.1,452.9z"/>
		<path class="st2" d="M1922.1,478.5v18.1c-1.4-0.1-2.8-0.1-4.1-0.1c-29.3,0-54.9,18-64.6,43.6c-4.9-3.8-10.5-6.8-16.2-9.8
			c13.2-30.4,44.4-51.9,80.8-51.9C1919.3,478.4,1920.7,478.4,1922.1,478.5z"/>
		<path class="st2" d="M1922.1,505.9v85.2c-1.4,0-2.8,0-4.1,0c-7.5,0-14.6,0.8-21.8,1.9c-7.5-18.4-19.5-34.2-35-47
			c7.5-23.3,30.1-40.2,56.8-40.2C1919.3,505.8,1920.7,505.9,1922.1,505.9z"/>
		<path class="st2" d="M137,542.6c40.2,0,74.8,23.7,89.4,57.5c5.3-1.9,10.5-3.8,16.2-5.3c-16.9-40.2-57.9-68.4-105.6-68.4
			s-88.7,28.2-105.6,68.4c5.6,1.5,10.9,3,16.2,5.3C62.2,566.3,96.8,542.6,137,542.6z"/>
		<path class="st2" d="M137,570.1c29.7,0,54.9,18,64.6,43.6c5.3-3.8,10.5-6.8,16.2-9.8C204.6,573.4,173.4,552,137,552
			s-67.6,21.4-80.8,51.9c5.6,3,11.3,6,16.2,9.8C82.1,588.1,107.3,570.1,137,570.1z"/>
		<path class="st2" d="M158.8,666.6c7.5-18.4,19.5-34.6,35-47c-7.5-23.3-30.1-40.2-56.7-40.2s-49.2,16.9-56.7,40.2
			c15.4,12.4,27.4,28.6,35,47c7.1-1.1,14.3-1.9,21.8-1.9C144.5,664.8,151.6,665.5,158.8,666.6z"/>
		<path class="st2" d="M410.9,542.6c40.2,0,74.8,23.7,89.8,57.5c5.3-1.9,10.5-3.8,16.2-5.3c-16.9-40.2-57.9-68.4-105.6-68.4
			s-88.7,28.2-105.6,68.4c5.6,1.5,10.9,3,16.2,5.3C336.1,566.3,370.7,542.6,410.9,542.6z"/>
		<path class="st2" d="M410.9,570.1c29.7,0,54.9,18,64.6,43.6c5.3-3.8,10.5-6.8,16.2-9.8c-13.2-30.4-44.3-51.9-80.8-51.9
			s-67.6,21.4-80.8,51.9c5.6,3,11.3,6,16.2,9.8C356.1,588.1,381.2,570.1,410.9,570.1z"/>
		<path class="st2" d="M432.7,666.6c7.5-18.4,19.5-34.6,35-47c-7.5-23.3-30.1-40.2-56.7-40.2s-49.2,16.9-56.7,40.2
			c15.4,12.4,27.4,28.6,35,47c7.1-1.1,14.3-1.9,21.8-1.9C418.4,664.8,425.6,665.5,432.7,666.6z"/>
		<path class="st2" d="M684.9,542.6c40.2,0,74.8,23.7,89.8,57.5c5.3-1.9,10.5-3.8,16.2-5.3c-16.9-40.2-57.9-68.4-105.6-68.4
			c-47.7,0-88.7,28.2-105.6,68.4c5.6,1.5,10.9,3,15.8,5.3C610.1,566.3,644.7,542.6,684.9,542.6z"/>
		<path class="st2" d="M684.9,570.1c29.7,0,54.9,18,64.6,43.6c5.3-3.8,10.5-6.8,16.2-9.8c-13.2-30.4-44.3-51.9-80.8-51.9
			s-67.6,21.4-80.8,51.9c5.6,3,11.3,6,16.2,9.8C630,588.1,655.2,570.1,684.9,570.1z"/>
		<path class="st2" d="M707.1,666.6c7.5-18.4,19.5-34.6,35-47c-7.5-23.3-30.1-40.2-56.7-40.2s-49.2,16.9-56.7,40.2
			c15.4,12.4,27.4,28.6,34.6,47c7.1-1.1,14.3-1.9,21.8-1.9C692.4,664.8,699.9,665.5,707.1,666.6z"/>
		<path class="st2" d="M958.9,542.6c40.2,0,74.8,23.7,89.8,57.5c5.3-1.9,10.5-3.8,16.2-5.3c-16.9-40.2-57.9-68.4-105.6-68.4
			c-47.7,0-88.7,28.2-105.6,68.4c5.6,1.5,10.9,3,15.8,5.3C884.1,566.3,918.7,542.6,958.9,542.6z"/>
		<path class="st2" d="M958.9,570.1c29.7,0,54.9,18,64.6,43.6c5.3-3.8,10.5-6.8,16.2-9.8c-13.2-30.4-44.3-51.9-80.8-51.9
			c-36.5,0-67.6,21.4-80.8,51.9c5.6,3,11.3,6,16.2,9.8C904,588.1,929.6,570.1,958.9,570.1z"/>
		<path class="st2" d="M981,666.6c7.5-18.4,19.5-34.6,34.6-47c-7.5-23.3-30.1-40.2-56.7-40.2s-49.2,16.9-56.7,40.2
			c15.4,12.4,27.4,28.6,35,47c7.1-1.1,14.3-1.9,21.8-1.9C966.4,664.8,973.9,665.5,981,666.6z"/>
		<path class="st2" d="M1232.8,542.6c40.2,0,74.8,23.7,89.8,57.5c5.3-1.9,10.5-3.8,15.8-5.3c-16.9-40.2-57.9-68.4-105.6-68.4
			s-88.7,28.2-105.6,68.4c5.6,1.5,10.9,3,15.8,5.3C1158.1,566.3,1192.6,542.6,1232.8,542.6z"/>
		<path class="st2" d="M1232.8,570.1c29.7,0,54.9,18,64.6,43.6c5.3-3.8,10.5-6.8,16.2-9.8c-13.2-30.4-44.3-51.9-80.8-51.9
			s-67.6,21.4-80.8,51.9c5.6,3,11.3,6,16.2,9.8C1178,588.1,1203.5,570.1,1232.8,570.1z"/>
		<path class="st2" d="M1255,666.6c7.5-18.4,19.5-34.6,35-47c-7.5-23.3-30.1-40.2-56.7-40.2c-26.7,0-49.2,16.9-56.7,40.2
			c15.4,12.4,27.4,28.6,35,47c7.1-1.1,14.3-1.9,21.8-1.9C1240.4,664.8,1247.9,665.5,1255,666.6z"/>
		<path class="st2" d="M1507.2,542.6c40.2,0,74.8,23.7,89.8,57.5c5.3-1.9,10.5-3.8,16.2-5.3c-16.9-40.2-57.9-68.4-105.6-68.4
			c-47.7,0-88.7,28.2-105.6,68.4c5.6,1.5,10.9,3,16.2,5.3C1432.4,566.3,1467,542.6,1507.2,542.6z"/>
		<path class="st2" d="M1507.2,570.1c29.7,0,54.9,18,64.6,43.6c5.3-3.8,10.5-6.8,16.2-9.8c-13.2-30.4-44.3-51.9-80.8-51.9
			c-36.5,0-67.6,21.4-80.8,51.9c5.6,3,11.3,6,16.2,9.8C1451.9,588.1,1477.5,570.1,1507.2,570.1z"/>
		<path class="st2" d="M1529,666.6c7.5-18.4,19.5-34.6,35-47c-7.5-23.3-30.1-40.2-56.7-40.2c-26.7,0-49.2,16.9-56.7,40.2
			c15.4,12.4,27.4,28.6,35,47c7.1-1.1,14.3-1.9,21.8-1.9C1514.7,664.8,1521.8,665.5,1529,666.6z"/>
		<path class="st2" d="M1781.2,542.6c40.2,0,74.8,23.7,89.8,57.5c5.3-1.9,10.5-3.8,15.8-5.3c-16.9-40.2-57.9-68.4-105.6-68.4
			c-47.7,0-88.7,28.2-105.6,68.4c5.6,1.5,10.9,3,16.2,5.3C1706.4,566.3,1740.9,542.6,1781.2,542.6z"/>
		<path class="st2" d="M1781.2,570.1c29.7,0,54.9,18,64.6,43.6c5.3-3.8,10.5-6.8,16.2-9.8c-13.2-30.4-44.3-51.9-80.8-51.9
			c-36.5,0-67.6,21.4-80.8,51.9c5.6,3,11.3,6,16.2,9.8C1726.3,588.1,1751.5,570.1,1781.2,570.1z"/>
		<path class="st2" d="M1803,666.6c7.5-18.4,19.5-34.6,35-47c-7.5-23.3-30.1-40.2-56.7-40.2c-26.7,0-49.2,16.9-56.7,40.2
			c15.4,12.4,27.4,28.6,35,47c7.1-1.1,14.3-1.9,21.8-1.9C1788.7,664.8,1795.8,665.5,1803,666.6z"/>
		<path class="st2" d="M106.2,668.9c-5.6,1.5-10.9,3.4-16.2,5.3c-15-33.8-49.6-57.5-89.8-57.5c-0.8,0-1.5,0-2.3,0v-16.2
			c0.9,0,1.8,0,2.6,0C48.3,600.5,89.2,628.7,106.2,668.9z"/>
		<path class="st2" d="M81,677.9c-5.6,3-10.9,6-16.2,9.8c-9.8-25.6-34.9-43.6-64.6-43.6c-0.8,0-1.5,0-2.3,0v-18c0.8,0,1.5,0,2.3,0
			C36.6,626.1,67.8,647.5,81,677.9z"/>
		<path class="st2" d="M56.9,693.3c-15.4,12.8-27.4,28.6-34.9,47c-7.1-1.1-14.6-1.9-21.8-1.9c-0.8,0-1.5,0-2.3,0v-85.3
			c0.8,0,1.5,0,2.3,0C26.9,653.1,49.4,670,56.9,693.3z"/>
		<path class="st2" d="M274.1,616.7c40.2,0,74.8,23.7,89.4,57.5c5.3-1.9,10.5-3.8,16.2-5.3c-17.3-40.2-57.9-68.4-105.6-68.4
			s-88.7,28.2-105.6,68.4c5.6,1.5,10.9,3,15.8,5.3C199.3,640.3,233.9,616.7,274.1,616.7z"/>
		<path class="st2" d="M274.1,644.1c29.7,0,54.9,18,64.6,43.6c5.3-3.8,10.5-6.8,16.2-9.8c-13.2-30.4-44.3-51.9-80.8-51.9
			c-36.5,0-67.6,21.4-80.8,51.9c5.6,3,11.3,6,16.2,9.8C219.3,662.1,244.4,644.1,274.1,644.1z"/>
		<path class="st2" d="M295.9,740.3c7.5-18.4,19.5-34.2,35-47c-7.5-23.3-30.1-40.2-56.7-40.2s-49.2,16.9-56.7,40.2
			c15.4,12.8,27.4,28.6,35,47c7.1-1.1,14.3-1.9,21.8-1.9C281.7,738.4,288.8,739.2,295.9,740.3z"/>
		<path class="st2" d="M548.1,616.7c40.2,0,74.8,23.7,89.8,57.5c5.3-1.9,10.5-3.8,16.2-5.3c-16.9-40.2-57.9-68.4-105.6-68.4
			c-47.7,0-88.7,28.2-105.6,68.4c5.6,1.5,10.9,3,16.2,5.3C473.3,640.3,507.9,616.7,548.1,616.7z"/>
		<path class="st2" d="M548.1,644.1c29.7,0,54.9,18,64.6,43.6c5.3-3.8,10.5-6.8,16.2-9.8c-13.2-30.4-44.3-51.9-80.8-51.9
			s-67.6,21.4-80.8,51.9c5.6,3,11.3,6,16.2,9.8C493.2,662.1,518.4,644.1,548.1,644.1z"/>
		<path class="st2" d="M569.9,740.3c7.5-18.4,19.5-34.2,35-47c-7.5-23.3-30.1-40.2-56.7-40.2s-49.2,16.9-56.7,40.2
			c15.4,12.8,27.4,28.6,35,47c7.1-1.1,14.3-1.9,21.8-1.9C555.6,738.4,562.8,739.2,569.9,740.3z"/>
		<path class="st2" d="M822.1,616.7c40.2,0,74.8,23.7,89.8,57.5c5.3-1.9,10.5-3.8,15.8-5.3c-17.3-40.2-57.9-68.4-105.6-68.4
			s-88.7,28.2-105.6,68.4c5.6,1.5,10.9,3,15.8,5.3C747.3,640.3,781.9,616.7,822.1,616.7z"/>
		<path class="st2" d="M822.1,644.1c29.7,0,54.9,18,64.6,43.6c5.3-3.8,10.5-6.8,16.2-9.8c-13.2-30.4-44.3-51.9-80.8-51.9
			s-67.6,21.4-80.8,51.9c5.6,3,11.3,6,16.2,9.8C767.2,662.1,792.4,644.1,822.1,644.1z"/>
		<path class="st2" d="M843.9,740.3c7.5-18.4,19.5-34.2,35-47c-7.5-23.3-30.1-40.2-56.7-40.2s-49.2,16.9-56.7,40.2
			c15.4,12.8,27.4,28.6,35,47c7.1-1.1,14.3-1.9,21.8-1.9S836.7,739.2,843.9,740.3z"/>
		<path class="st2" d="M1096,616.7c40.2,0,74.8,23.7,89.8,57.5c5.3-1.9,10.5-3.8,15.8-5.3c-16.9-40.2-57.9-68.4-105.6-68.4
			c-47.7,0-88.7,28.2-105.6,68.4c5.6,1.5,10.9,3,16.2,5.3C1021.3,640.3,1055.8,616.7,1096,616.7z"/>
		<path class="st2" d="M1096,644.1c29.7,0,54.9,18,64.6,43.6c5.3-3.8,10.5-6.8,16.2-9.8c-13.2-30.4-44.3-51.9-80.8-51.9
			c-36.5,0-67.6,21.4-80.8,51.9c5.6,3,11.3,6,16.2,9.8C1041.2,662.1,1066.4,644.1,1096,644.1z"/>
		<path class="st2" d="M1117.8,740.3c7.5-18.4,19.5-34.2,35-47c-7.5-23.3-30.1-40.2-56.7-40.2c-26.7,0-49.2,16.9-56.7,40.2
			c15.4,12.8,27.4,28.6,35,47c7.1-1.1,14.3-1.9,21.8-1.9C1103.6,738.4,1110.7,739.2,1117.8,740.3z"/>
		<path class="st2" d="M1370,616.7c40.2,0,74.8,23.7,89.8,57.5c5.3-1.9,10.5-3.8,15.8-5.3c-16.9-40.2-57.9-68.4-105.6-68.4
			c-47.7,0-88.7,28.2-105.6,68.4c5.6,1.5,10.9,3,15.8,5.3C1295.2,640.3,1329.8,616.7,1370,616.7z"/>
		<path class="st2" d="M1370,644.1c29.7,0,54.9,18,64.6,43.6c5.3-3.8,10.5-6.8,16.2-9.8c-13.2-30.4-44.3-51.9-80.8-51.9
			c-36.5,0-67.6,21.4-80.8,51.9c5.6,3,11.3,6,16.2,9.8C1315.1,662.1,1340.3,644.1,1370,644.1z"/>
		<path class="st2" d="M1391.8,740.3c7.5-18.4,19.5-34.2,35-47c-7.5-23.3-30.1-40.2-56.7-40.2c-26.7,0-49.2,16.9-56.7,40.2
			c15.4,12.8,27.4,28.6,35,47c7.1-1.1,14.3-1.9,21.8-1.9C1377.5,738.4,1384.7,739.2,1391.8,740.3z"/>
		<path class="st2" d="M1644,616.7c40.2,0,74.8,23.7,89.8,57.5c5.3-1.9,10.5-3.8,16.2-5.3c-16.9-40.2-57.9-68.4-105.6-68.4
			s-88.7,28.2-105.6,68.4c5.6,1.5,10.9,3,16.2,5.3C1569.2,640.3,1603.8,616.7,1644,616.7z"/>
		<path class="st2" d="M1644,644.1c29.7,0,54.9,18,64.6,43.6c5.3-3.8,10.5-6.8,16.2-9.8c-13.2-30.4-44.7-51.9-80.8-51.9
			c-36.5,0-67.6,21.4-80.8,51.9c5.6,3,11.3,6,16.2,9.8C1589.1,662.1,1614.3,644.1,1644,644.1z"/>
		<path class="st2" d="M1665.8,740.3c7.5-18.4,19.5-34.2,35-47c-7.5-23.3-30.1-40.2-56.7-40.2c-26.7,0-49.2,16.9-56.7,40.2
			c15.4,12.8,27.4,28.6,35,47c7.1-1.1,14.3-1.9,21.8-1.9C1651.5,738.4,1659,739.2,1665.8,740.3z"/>
		<path class="st2" d="M1922.1,600.6v16.2c-1.4-0.1-2.8-0.1-4.1-0.1c-40.2,0-74.8,23.7-89.4,57.5c-4.9-2.2-10.1-3.8-15.8-5.3
			c16.9-40.2,57.9-68.4,105.6-68.4C1919.6,600.5,1920.8,600.5,1922.1,600.6z"/>
		<path class="st2" d="M1922.1,626.2v18.1c-1.4-0.1-2.8-0.1-4.1-0.1c-29.3,0-54.9,18-64.6,43.6c-4.9-3.8-10.5-6.8-16.2-9.8
			c13.2-30.4,44.4-51.9,80.8-51.9C1919.3,626.1,1920.7,626.1,1922.1,626.2z"/>
		<path class="st2" d="M1922.1,653.3v85.2c-1.4,0-2.8-0.1-4.1-0.1c-7.5,0-14.6,0.8-21.8,1.9c-7.5-18.4-19.5-34.2-35-47
			c7.5-23.3,30.1-40.2,56.8-40.2C1919.3,653.1,1920.7,653.2,1922.1,653.3z"/>
		<path class="st2" d="M137,690.3c40.2,0,74.8,23.7,89.4,57.5c5.3-1.9,10.5-3.8,16.2-5.3c-16.9-40.2-57.9-68.4-105.6-68.4
			s-88.7,28.2-105.6,68.4c5.6,1.5,10.9,3,16.2,5.3C62.2,714,96.8,690.3,137,690.3z"/>
		<path class="st2" d="M137,717.8c29.7,0,54.9,18,64.6,43.6c5.3-3.8,10.5-6.8,16.2-9.8c-13.2-30.4-44.3-52.2-80.8-52.2
			s-67.6,21.4-80.8,52.2c5.6,2.6,11.3,6,16.2,9.8C82.1,735.8,107.3,717.8,137,717.8z"/>
		<path class="st2" d="M158.8,814.3c7.5-18.4,19.5-34.6,35-47c-7.5-23.3-30.1-40.2-56.7-40.2s-49.2,16.9-56.7,40.2
			c15.4,12.8,27.4,28.6,35,47c7.1-1.1,14.3-1.9,21.8-1.9C144.5,812.5,151.6,813.2,158.8,814.3z"/>
		<path class="st2" d="M410.9,690.3c40.2,0,74.8,23.7,89.8,57.5c5.3-1.9,10.5-3.8,16.2-5.3c-16.9-40.2-57.9-68.4-105.6-68.4
			s-88.7,28.2-105.6,68.4c5.6,1.5,10.9,3,16.2,5.3C336.1,714,370.7,690.3,410.9,690.3z"/>
		<path class="st2" d="M410.9,717.8c29.7,0,54.9,18,64.6,43.6c5.3-3.8,10.5-6.8,16.2-9.8c-13.2-30.4-44.3-52.2-80.8-52.2
			s-67.6,21.4-80.8,52.2c5.6,2.6,11.3,6,16.2,9.8C356.1,735.8,381.2,717.8,410.9,717.8z"/>
		<path class="st2" d="M432.7,814.3c7.5-18.4,19.5-34.6,35-47c-7.5-23.3-30.1-40.2-56.7-40.2s-49.2,16.9-56.7,40.2
			c15.4,12.8,27.4,28.6,35,47c7.1-1.1,14.3-1.9,21.8-1.9C418.4,812.5,425.6,813.2,432.7,814.3z"/>
		<path class="st2" d="M684.9,690.3c40.2,0,74.8,23.7,89.8,57.5c5.3-1.9,10.5-3.8,16.2-5.3c-16.9-40.2-57.9-68.4-105.6-68.4
			c-47.7,0-88.7,28.2-105.6,68.4c5.6,1.5,10.9,3,15.8,5.3C610.1,714,644.7,690.3,684.9,690.3z"/>
		<path class="st2" d="M684.9,717.8c29.7,0,54.9,18,64.6,43.6c5.3-3.8,10.5-6.8,16.2-9.8c-13.2-30.4-44.3-52.2-80.8-52.2
			s-67.6,21.4-80.8,52.2c5.6,2.6,11.3,6,16.2,9.8C630,735.8,655.2,717.8,684.9,717.8z"/>
		<path class="st2" d="M707.1,814.3c7.5-18.4,19.5-34.6,35-47c-7.5-23.3-30.1-40.2-56.7-40.2s-49.2,16.9-56.7,40.2
			c15.4,12.8,27.4,28.6,34.6,47c7.1-1.1,14.3-1.9,21.8-1.9C692.4,812.5,699.9,813.2,707.1,814.3z"/>
		<path class="st2" d="M958.9,690.3c40.2,0,74.8,23.7,89.8,57.5c5.3-1.9,10.5-3.8,16.2-5.3c-16.9-40.2-57.9-68.4-105.6-68.4
			c-47.7,0-88.7,28.2-105.6,68.4c5.6,1.5,10.9,3,15.8,5.3C884.1,714,918.7,690.3,958.9,690.3z"/>
		<path class="st2" d="M958.9,717.8c29.7,0,54.9,18,64.6,43.6c5.3-3.8,10.5-6.8,16.2-9.8c-13.2-30.4-44.3-52.2-80.8-52.2
			c-36.5,0-67.6,21.4-80.8,52.2c5.6,2.6,11.3,6,16.2,9.8C904,735.8,929.6,717.8,958.9,717.8z"/>
		<path class="st2" d="M981,814.3c7.5-18.4,19.5-34.6,34.6-47c-7.5-23.3-30.1-40.2-56.7-40.2s-49.2,16.9-56.7,40.2
			c15.4,12.8,27.4,28.6,35,47c7.1-1.1,14.3-1.9,21.8-1.9C966.4,812.5,973.9,813.2,981,814.3z"/>
		<path class="st2" d="M1232.8,690.3c40.2,0,74.8,23.7,89.8,57.5c5.3-1.9,10.5-3.8,15.8-5.3c-16.9-40.2-57.9-68.4-105.6-68.4
			s-88.7,28.2-105.6,68.4c5.6,1.5,10.9,3,15.8,5.3C1158.1,714,1192.6,690.3,1232.8,690.3z"/>
		<path class="st2" d="M1232.8,717.8c29.7,0,54.9,18,64.6,43.6c5.3-3.8,10.5-6.8,16.2-9.8c-13.2-30.4-44.3-52.2-80.8-52.2
			s-67.6,21.4-80.8,52.2c5.6,2.6,11.3,6,16.2,9.8C1178,735.8,1203.5,717.8,1232.8,717.8z"/>
		<path class="st2" d="M1255,814.3c7.5-18.4,19.5-34.6,35-47c-7.5-23.3-30.1-40.2-56.7-40.2c-26.7,0-49.2,16.9-56.7,40.2
			c15.4,12.8,27.4,28.6,35,47c7.1-1.1,14.3-1.9,21.8-1.9C1240.4,812.5,1247.9,813.2,1255,814.3z"/>
		<path class="st2" d="M1507.2,690.3c40.2,0,74.8,23.7,89.8,57.5c5.3-1.9,10.5-3.8,16.2-5.3c-16.9-40.2-57.9-68.4-105.6-68.4
			c-47.7,0-88.7,28.2-105.6,68.4c5.6,1.5,10.9,3,16.2,5.3C1432.4,714,1467,690.3,1507.2,690.3z"/>
		<path class="st2" d="M1507.2,717.8c29.7,0,54.9,18,64.6,43.6c5.3-3.8,10.5-6.8,16.2-9.8c-13.2-30.4-44.3-52.2-80.8-52.2
			c-36.5,0-67.6,21.4-80.8,52.2c5.6,2.6,11.3,6,16.2,9.8C1451.9,735.8,1477.5,717.8,1507.2,717.8z"/>
		<path class="st2" d="M1529,814.3c7.5-18.4,19.5-34.6,35-47c-7.5-23.3-30.1-40.2-56.7-40.2c-26.7,0-49.2,16.9-56.7,40.2
			c15.4,12.8,27.4,28.6,35,47c7.1-1.1,14.3-1.9,21.8-1.9C1514.7,812.5,1521.8,813.2,1529,814.3z"/>
		<path class="st2" d="M1781.2,690.3c40.2,0,74.8,23.7,89.8,57.5c5.3-1.9,10.5-3.8,15.8-5.3c-16.9-40.2-57.9-68.4-105.6-68.4
			c-47.7,0-88.7,28.2-105.6,68.4c5.6,1.5,10.9,3,16.2,5.3C1706.4,714,1740.9,690.3,1781.2,690.3z"/>
		<path class="st2" d="M1781.2,717.8c29.7,0,54.9,18,64.6,43.6c5.3-3.8,10.5-6.8,16.2-9.8c-13.2-30.4-44.3-52.2-80.8-52.2
			c-36.5,0-67.6,21.4-80.8,52.2c5.6,2.6,11.3,6,16.2,9.8C1726.3,735.8,1751.5,717.8,1781.2,717.8z"/>
		<path class="st2" d="M1803,814.3c7.5-18.4,19.5-34.6,35-47c-7.5-23.3-30.1-40.2-56.7-40.2c-26.7,0-49.2,16.9-56.7,40.2
			c15.4,12.8,27.4,28.6,35,47c7.1-1.1,14.3-1.9,21.8-1.9C1788.7,812.5,1795.8,813.2,1803,814.3z"/>
		<path class="st2" d="M106.2,816.2c-5.6,1.5-10.9,3-16.2,5.3C75,787.7,40.4,764,0.2,764c-0.8,0-1.5,0-2.3,0v-16.2
			c0.9,0,1.8,0,2.6,0C48.3,747.8,89.2,776,106.2,816.2z"/>
		<path class="st2" d="M81,825.2c-5.6,3-10.9,6-16.2,9.8c-9.8-25.5-34.9-43.6-64.6-43.6c-0.8,0-1.5,0-2.3,0v-18.1c0.8,0,1.5,0,2.3,0
			C36.6,773.4,67.8,794.8,81,825.2z"/>
		<path class="st2" d="M56.9,841c-15.4,12.4-27.4,28.6-34.9,47c-7.1-1.1-14.6-1.9-21.8-1.9c-0.8,0-1.5,0-2.3,0v-85.3
			c0.8,0,1.5,0,2.3,0C26.9,800.8,49.4,817.7,56.9,841z"/>
		<path class="st2" d="M274.1,764c40.2,0,74.8,23.7,89.4,57.5c5.3-2.3,10.5-3.8,16.2-5.3c-17.3-40.2-57.9-68.4-105.6-68.4
			s-88.7,28.2-105.6,68.4c5.6,1.5,10.9,3,15.8,5.3C199.3,787.7,233.9,764,274.1,764z"/>
		<path class="st2" d="M274.1,791.4c29.7,0,54.9,18,64.6,43.6c5.3-3.8,10.5-6.8,16.2-9.8c-13.2-30.4-44.3-51.9-80.8-51.9
			c-36.5,0-67.6,21.4-80.8,51.9c5.6,2.6,11.3,6,16.2,9.8C219.3,809.5,244.4,791.4,274.1,791.4z"/>
		<path class="st2" d="M295.9,888c7.5-18.4,19.5-34.6,35-47c-7.5-23.3-30.1-40.2-56.7-40.2s-49.2,16.9-56.7,40.2
			c15.4,12.4,27.4,28.6,35,47c7.1-1.1,14.3-1.9,21.8-1.9C281.7,886.1,288.8,886.9,295.9,888z"/>
		<path class="st2" d="M548.1,764c40.2,0,74.8,23.7,89.8,57.5c5.3-2.3,10.5-3.8,16.2-5.3c-16.9-40.2-57.9-68.4-105.6-68.4
			c-47.7,0-88.7,28.2-105.6,68.4c5.6,1.5,10.9,3,16.2,5.3C473.3,787.7,507.9,764,548.1,764z"/>
		<path class="st2" d="M548.1,791.4c29.7,0,54.9,18,64.6,43.6c5.3-3.8,10.5-6.8,16.2-9.8c-13.2-30.4-44.3-51.9-80.8-51.9
			s-67.6,21.4-80.8,51.9c5.6,2.6,11.3,6,16.2,9.8C493.2,809.5,518.4,791.4,548.1,791.4z"/>
		<path class="st2" d="M569.9,888c7.5-18.4,19.5-34.6,35-47c-7.5-23.3-30.1-40.2-56.7-40.2s-49.2,16.9-56.7,40.2
			c15.4,12.4,27.4,28.6,35,47c7.1-1.1,14.3-1.9,21.8-1.9C555.6,886.1,562.8,886.9,569.9,888z"/>
		<path class="st2" d="M822.1,764c40.2,0,74.8,23.7,89.8,57.5c5.3-2.3,10.5-3.8,15.8-5.3c-17.3-40.2-57.9-68.4-105.6-68.4
			s-88.7,28.2-105.6,68.4c5.6,1.5,10.9,3,15.8,5.3C747.3,787.7,781.9,764,822.1,764z"/>
		<path class="st2" d="M822.1,791.4c29.7,0,54.9,18,64.6,43.6c5.3-3.8,10.5-6.8,16.2-9.8c-13.2-30.4-44.3-51.9-80.8-51.9
			s-67.6,21.4-80.8,51.9c5.6,2.6,11.3,6,16.2,9.8C767.2,809.5,792.4,791.4,822.1,791.4z"/>
		<path class="st2" d="M843.9,888c7.5-18.4,19.5-34.6,35-47c-7.5-23.3-30.1-40.2-56.7-40.2s-49.2,16.9-56.7,40.2
			c15.4,12.4,27.4,28.6,35,47c7.1-1.1,14.3-1.9,21.8-1.9S836.7,886.9,843.9,888z"/>
		<path class="st2" d="M1096,764c40.2,0,74.8,23.7,89.8,57.5c5.3-2.3,10.5-3.8,15.8-5.3c-16.9-40.2-57.9-68.4-105.6-68.4
			c-47.7,0-88.7,28.2-105.6,68.4c5.6,1.5,10.9,3,16.2,5.3C1021.3,787.7,1055.8,764,1096,764z"/>
		<path class="st2" d="M1096,791.4c29.7,0,54.9,18,64.6,43.6c5.3-3.8,10.5-6.8,16.2-9.8c-13.2-30.4-44.3-51.9-80.8-51.9
			c-36.5,0-67.6,21.4-80.8,51.9c5.6,2.6,11.3,6,16.2,9.8C1041.2,809.5,1066.4,791.4,1096,791.4z"/>
		<path class="st2" d="M1117.8,888c7.5-18.4,19.5-34.6,35-47c-7.5-23.3-30.1-40.2-56.7-40.2c-26.7,0-49.2,16.9-56.7,40.2
			c15.4,12.4,27.4,28.6,35,47c7.1-1.1,14.3-1.9,21.8-1.9C1103.6,886.1,1110.7,886.9,1117.8,888z"/>
		<path class="st2" d="M1370,764c40.2,0,74.8,23.7,89.8,57.5c5.3-2.3,10.5-3.8,15.8-5.3c-16.9-40.2-57.9-68.4-105.6-68.4
			c-47.7,0-88.7,28.2-105.6,68.4c5.6,1.5,10.9,3,15.8,5.3C1295.2,787.7,1329.8,764,1370,764z"/>
		<path class="st2" d="M1370,791.4c29.7,0,54.9,18,64.6,43.6c5.3-3.8,10.5-6.8,16.2-9.8c-13.2-30.4-44.3-51.9-80.8-51.9
			c-36.5,0-67.6,21.4-80.8,51.9c5.6,2.6,11.3,6,16.2,9.8C1315.1,809.5,1340.3,791.4,1370,791.4z"/>
		<path class="st2" d="M1391.8,888c7.5-18.4,19.5-34.6,35-47c-7.5-23.3-30.1-40.2-56.7-40.2c-26.7,0-49.2,16.9-56.7,40.2
			c15.4,12.4,27.4,28.6,35,47c7.1-1.1,14.3-1.9,21.8-1.9C1377.5,886.1,1384.7,886.9,1391.8,888z"/>
		<path class="st2" d="M1644,764c40.2,0,74.8,23.7,89.8,57.5c5.3-2.3,10.5-3.8,16.2-5.3c-16.9-40.2-57.9-68.4-105.6-68.4
			s-88.7,28.2-105.6,68.4c5.6,1.5,10.9,3,16.2,5.3C1569.2,787.7,1603.8,764,1644,764z"/>
		<path class="st2" d="M1644,791.4c29.7,0,54.9,18,64.6,43.6c5.3-3.8,10.5-6.8,16.2-9.8c-13.2-30.4-44.7-51.9-80.8-51.9
			c-36.5,0-67.6,21.4-80.8,51.9c5.6,2.6,11.3,6,16.2,9.8C1589.1,809.5,1614.3,791.4,1644,791.4z"/>
		<path class="st2" d="M1665.8,888c7.5-18.4,19.5-34.6,35-47c-7.5-23.3-30.1-40.2-56.7-40.2c-26.7,0-49.2,16.9-56.7,40.2
			c15.4,12.4,27.4,28.6,35,47c7.1-1.1,14.3-1.9,21.8-1.9C1651.5,886.1,1659,886.9,1665.8,888z"/>
		<path class="st2" d="M1922.1,747.9v16.2c-1.4-0.1-2.8-0.1-4.1-0.1c-40.2,0-74.8,23.7-89.4,57.5c-4.9-2.2-10.1-3.8-15.8-5.3
			c16.9-40.2,57.9-68.4,105.6-68.4C1919.6,747.8,1920.8,747.8,1922.1,747.9z"/>
		<path class="st2" d="M1922.1,773.5v18.1c-1.4-0.1-2.8-0.1-4.1-0.1c-29.3,0-54.9,18-64.6,43.6c-4.9-3.8-10.5-7.1-16.2-9.8
			c13.2-30.4,44.4-51.9,80.8-51.9C1919.3,773.4,1920.7,773.4,1922.1,773.5z"/>
		<path class="st2" d="M1922.1,801v85.2c-1.4,0-2.8-0.1-4.1-0.1c-7.5,0-14.6,0.8-21.8,1.9c-7.5-18.4-19.5-34.6-35-47
			c7.5-23.3,30.1-40.2,56.8-40.2C1919.3,800.8,1920.7,800.9,1922.1,801z"/>
		<path class="st2" d="M137,838c40.2,0,74.8,23.7,89.4,57.5c5.3-2.3,10.5-3.8,16.2-5.3c-16.9-40.2-57.9-68.4-105.6-68.4
			S48.3,850,31.4,890.3c5.6,1.5,10.9,3,16.2,5.3C62.2,861.7,96.8,838,137,838z"/>
		<path class="st2" d="M137,865.5c29.7,0,54.9,18,64.6,43.6c5.3-3.4,10.5-6.8,16.2-9.8C204.6,868.5,173.4,847,137,847
			s-67.6,21.4-80.8,51.9c5.6,3,11.3,6,16.2,9.8C82.1,883.5,107.3,865.5,137,865.5z"/>
		<path class="st2" d="M191.6,909.1H82.4c9.1-20.3,30.1-34.6,54.6-34.6C161.5,874.5,182.5,888.7,191.6,909.1z"/>
		<path class="st2" d="M410.9,838c40.2,0,74.8,23.7,89.8,57.5c5.3-2.3,10.5-3.8,16.2-5.3C500,850,459,821.9,411.3,821.9
			s-88.7,28.2-105.6,68.4c5.6,1.5,10.9,3,16.2,5.3C336.1,861.7,370.7,838,410.9,838z"/>
		<path class="st2" d="M410.9,865.5c29.7,0,54.9,18,64.6,43.6c5.3-3.4,10.5-6.8,16.2-9.8c-13.2-30.4-44.3-51.9-80.8-51.9
			s-67.6,21.4-80.8,51.9c5.6,3,11.3,6,16.2,9.8C356.1,883.5,381.2,865.5,410.9,865.5z"/>
		<path class="st2" d="M465.5,909.1H356.3c9.1-20.3,30.1-34.6,54.6-34.6C435.4,874.5,456.4,888.7,465.5,909.1z"/>
		<path class="st2" d="M684.9,838c40.2,0,74.8,23.7,89.8,57.5c5.3-2.3,10.5-3.8,16.2-5.3C774,850,733,821.9,685.3,821.9
			c-47.7,0-88.7,28.2-105.6,68.4c5.6,1.5,10.9,3,15.8,5.3C610.1,861.7,644.7,838,684.9,838z"/>
		<path class="st2" d="M684.9,865.5c29.7,0,54.9,18,64.6,43.6c5.3-3.4,10.5-6.8,16.2-9.8c-13.2-30.4-44.3-51.9-80.8-51.9
			s-67.6,21.4-80.8,51.9c5.6,3,11.3,6,16.2,9.8C630,883.5,655.2,865.5,684.9,865.5z"/>
		<path class="st2" d="M739.9,909.1H630.7c9.1-20.3,30.1-34.6,54.6-34.6S730.8,888.7,739.9,909.1z"/>
		<path class="st2" d="M958.9,838c40.2,0,74.8,23.7,89.8,57.5c5.3-2.3,10.5-3.8,16.2-5.3c-16.9-40.2-57.9-68.4-105.6-68.4
			c-47.7,0-88.7,28.2-105.6,68.4c5.6,1.5,10.9,3,15.8,5.3C884.1,861.7,918.7,838,958.9,838z"/>
		<path class="st2" d="M958.9,865.5c29.7,0,54.9,18,64.6,43.6c5.3-3.4,10.5-6.8,16.2-9.8c-13.2-30.4-44.3-51.9-80.8-51.9
			c-36.5,0-67.6,21.4-80.8,51.9c5.6,3,11.3,6,16.2,9.8C904,883.5,929.6,865.5,958.9,865.5z"/>
		<path class="st2" d="M1013.5,909.1H904.3c9.1-20.3,30.1-34.6,54.6-34.6S1004.4,888.7,1013.5,909.1z"/>
		<path class="st2" d="M1232.8,838c40.2,0,74.8,23.7,89.8,57.5c5.3-2.3,10.5-3.8,15.8-5.3c-16.9-40.2-57.9-68.4-105.6-68.4
			s-88.7,28.2-105.6,68.4c5.6,1.5,10.9,3,15.8,5.3C1158.1,861.7,1192.6,838,1232.8,838z"/>
		<path class="st2" d="M1232.8,865.5c29.7,0,54.9,18,64.6,43.6c5.3-3.4,10.5-6.8,16.2-9.8c-13.2-30.4-44.3-51.9-80.8-51.9
			s-67.6,21.4-80.8,51.9c5.6,3,11.3,6,16.2,9.8C1178,883.5,1203.5,865.5,1232.8,865.5z"/>
		<path class="st2" d="M1287.8,909.1h-109.2c9.1-20.3,30.1-34.6,54.6-34.6C1257.7,874.5,1278.7,888.7,1287.8,909.1z"/>
		<path class="st2" d="M1507.2,838c40.2,0,74.8,23.7,89.8,57.5c5.3-2.3,10.5-3.8,16.2-5.3c-16.9-40.2-57.9-68.4-105.6-68.4
			c-47.7,0-88.7,28.2-105.6,68.4c5.6,1.5,10.9,3,16.2,5.3C1432.4,861.7,1467,838,1507.2,838z"/>
		<path class="st2" d="M1507.2,865.5c29.7,0,54.9,18,64.6,43.6c5.3-3.4,10.5-6.8,16.2-9.8c-13.2-30.4-44.3-51.9-80.8-51.9
			c-36.5,0-67.6,21.4-80.8,51.9c5.6,3,11.3,6,16.2,9.8C1451.9,883.5,1477.5,865.5,1507.2,865.5z"/>
		<path class="st2" d="M1561.8,909.1h-109.2c9.1-20.3,30.1-34.6,54.6-34.6C1531.7,874.5,1552.7,888.7,1561.8,909.1z"/>
		<path class="st2" d="M1781.2,838c40.2,0,74.8,23.7,89.8,57.5c5.3-2.3,10.5-3.8,15.8-5.3c-16.9-40.2-57.9-68.4-105.6-68.4
			c-47.7,0-88.7,28.2-105.6,68.4c5.6,1.5,10.9,3,16.2,5.3C1706.4,861.7,1740.9,838,1781.2,838z"/>
		<path class="st2" d="M1781.2,865.5c29.7,0,54.9,18,64.6,43.6c5.3-3.4,10.5-6.8,16.2-9.8c-13.2-30.4-44.3-51.9-80.8-51.9
			c-36.5,0-67.6,21.4-80.8,51.9c5.6,3,11.3,6,16.2,9.8C1726.3,883.5,1751.5,865.5,1781.2,865.5z"/>
		<path class="st2" d="M1835.7,909.1h-109.2c9.1-20.3,30.1-34.6,54.6-34.6C1805.6,874.5,1826.6,888.7,1835.7,909.1z"/>
		<path class="st2" d="M55.5,909.1H-2.1v-13.5c0.9,0,1.8,0,2.6,0C20.4,895.5,39.2,900.4,55.5,909.1z"/>
		<path class="st2" d="M328.9,909.1H219.2c16.3-8.6,35-13.5,54.9-13.5C294,895.5,312.7,900.4,328.9,909.1z"/>
		<path class="st2" d="M603.4,909.1H493.6c16.3-8.6,35-13.5,54.9-13.5C568.4,895.5,587.1,900.4,603.4,909.1z"/>
		<path class="st2" d="M876.9,909.1H767.2c16.3-8.6,35-13.5,54.9-13.5C842,895.5,860.6,900.4,876.9,909.1z"/>
		<path class="st2" d="M1151,909.1h-109.8c16.3-8.6,35-13.5,54.9-13.5C1115.9,895.5,1134.7,900.4,1151,909.1z"/>
		<path class="st2" d="M1424.9,909.1h-109.8c16.3-8.6,35-13.5,54.9-13.5S1408.6,900.4,1424.9,909.1z"/>
		<path class="st2" d="M1699.3,909.1h-109.8c16.3-8.6,35-13.5,54.9-13.5S1683,900.4,1699.3,909.1z"/>
		<path class="st2" d="M1922.1,895.6v13.5h-58.7c16.3-8.6,35-13.5,54.9-13.5C1919.6,895.5,1920.8,895.5,1922.1,895.6z"/>
	</g>
</g>
<polygon class="st2" points="585.4,670.6 381.9,753 381.9,753 381.8,753 178.4,670.6 381.8,566.5 381.9,566.5 381.9,566.5 "/>
<path class="st94" d="M381.9,566.4L381.9,566.4l0,0.1L178.4,670.6l-44-80.8l15.9-76.1l17.3-32.7l-2.8-5.4c-2.3-4.4-3.4-9.2-3.4-13.8
	c0-12,7.3-23.5,19.5-28c12-4.4,25.4-0.7,33.4,9.2l9.6,11.8l41.4,0.7l77.6,49L381.9,566.4z"/>
<path class="st95" d="M613.5,513.7l1.3-68.2l-62.2-23.2l-131.7,82.1l-39,62l0,0.1v0l203.4,104.1l44-80.8L613.5,513.7z M589.6,500.3
	l-75.8-28.8l2.3-6.1l75.8,28.8L589.6,500.3z"/>
<polygon class="st96" points="93.9,1056 93.9,1056.1 93.9,1056.1 "/>
<polygon class="st96" points="93.8,1056 93.9,1056.1 93.8,1056.1 "/>
<g>
	<g>
		<path class="st97" d="M378.8,567.7c13.2,1.6,26,6.9,38.7,16c0.3,0.2,0.7,0.5,1,0.7c11.7,0.2,22.4,4.3,32.2,12.4
			c5.6,4.6,10.2,10,13.7,15.9c14.9-5.1,27.3-5.7,37.4-1.9c15.2,5.8,30.2,17.3,41,31.7c11.1,14.7,15.7,29.4,12.6,40.2
			c-1.2,4.3-3.6,7.8-6.9,10.5c0,0.8,0.1,1.5,0.1,2.3c2.6-0.6,5-1.5,7.2-2.9c13.4-8.5,16-30.2,16-30.4l14.8,1.5
			c-0.1,1.2-3.2,29-22.8,41.5c-4.7,3-9.8,4.8-15.3,5.5c-1.1,13.7-5.2,27.1-16,35c-13.6,10-34,8.8-62-3.7
			c-10.1,12-21.4,17.9-31.7,19.3c-1.9,3.7-6.9,8.8-19.4,5.8c-18.4-4.4-31.2-13.9-43.3-23.4c-6.4,15-14,27.7-28.3,32.4
			c-10.2,3.4-19.6,0.3-25.8-8.4c-2.1-2.9-3.7-6.3-4.9-10c-8.6-0.1-20.3-2.5-24.7-13.7c-2.4-6.2-1.8-13.6,0.8-21.3
			c-19.7-1.9-37.3-12.9-53.6-33.3c-1.6-2-2.9-4-3.8-5.8c-10.9,3.4-22,4.6-33.6,2.1c-12.8-2.7-19.7-11.2-18.3-22.7
			c1.9-16.4,20.4-34.9,36.9-46.7c22.5-16.1,47.3-24.9,68-24.4c3.7,0.1,7.2,0.5,10.5,1.1c12.7-8.6,29.5-17.4,50.2-23
			C359.6,567.4,369.3,566.6,378.8,567.7z M396.6,588.5c-12.9-6.2-27-8.4-43.1-4c-13.5,3.6-25.7,9-36.4,15.2c2.2,1.3,4.3,2.7,6.3,4.3
			l1.9-4c0.2,0.1,11.5,5.5,27.9,14c2.8-1.6,5.5-3,8.1-4.4c7.9-6.2,16-11.7,23.9-15.9C389,591.5,392.8,589.8,396.6,588.5z
			 M438.9,624.5c-8-9.3-16.3-18-25.1-25c-5.1,0.5-10.5,2.1-16.2,4.6c5.4,1.8,11,5,17,9.9c4.8,4,9.8,9.6,14.7,16.3
			c2.1-1.3,4.3-2.6,6.4-3.9C436.7,625.7,437.8,625.1,438.9,624.5z M535.7,658.8c-1.3-2.3-2.9-4.7-4.8-7.2
			c-9.2-12.2-21.7-21.9-34.4-26.7c-6.7-2.5-15.5-2-26.4,1.7c0.3,1,0.5,2.1,0.7,3.1c0.8,3.9,1,7.8,0.9,11.5
			c11.9,14.5,23.4,27.8,35.3,35.4C520.2,663.1,528.7,657.9,535.7,658.8C535.7,658.7,535.7,658.7,535.7,658.8z M416.7,638.4
			c-4-5.4-8-9.8-11.8-13c-12.3-10.2-20.9-10.5-35.7-3.2c0,0-0.1,0.1-0.1,0.1c12.2,6.5,25.8,14,39.2,22
			C411,642.2,413.9,640.3,416.7,638.4z M321.7,623c-5.6-6.4-11.6-11.2-19.3-13.8c-16.8,12.4-28,26.2-31.8,35.7
			c-0.1,0.3-0.3,0.6-0.4,0.9c1,0.7,2.1,1.3,3.2,2C288.6,638.5,304.3,629,321.7,623z M257.3,638.2c4.2-9.7,12.8-20.8,24.2-31.1
			c-15.6,1.5-33.9,8.8-50.6,20.5C237.7,628.8,246.4,632.3,257.3,638.2z M456.2,645.5c-0.5-0.7-1.1-1.3-1.6-2c-2-2.5-4-4.9-6-7.4
			c-1.8,1-3.6,2-5.5,3.1c-1.9,1.1-3.8,2.2-5.6,3.4c2,3.3,4,6.8,5.9,10.4c2.9,0.1,5.7,0.5,8.4,1.1c0.5-0.5,0.9-1,1.3-1.6
			C454.4,650.5,455.5,648.1,456.2,645.5z M395.2,653.8c-10.8-6.3-21.5-12.2-31.4-17.5c4,7.9,5.9,18.1,5.3,28.5
			c0.4,0.4,0.7,0.9,1.1,1.3c2.5,0.4,5,0.7,7.5,1.1C383.3,662.8,389.1,658.3,395.2,653.8z M427.4,654.9c-0.8-1.4-1.6-2.8-2.4-4.1
			c-0.9,0.6-1.9,1.3-2.8,1.9c1.5,0.9,3,1.7,4.4,2.4C426.8,655,427.1,654.9,427.4,654.9z M494.5,685.9c-9.6-7.1-18.7-16.8-27.7-27.5
			c-0.4,0.7-0.8,1.4-1.3,2c0.3,0.2,0.5,0.4,0.7,0.6c6.4,5.2,8.8,12.2,6.3,18.3c-0.9,2.2-2.5,4.5-5.3,6.5
			C476.2,685,485.3,685,494.5,685.9z M349.5,663.3c-3.6-5-6.8-10-9.8-14.6c-2.6,2.5-5.1,5-7.6,7.5c-1.6,1.6-3.2,3-4.8,4.5
			C334.6,661.4,342,662.3,349.5,663.3z M532.8,683.6c-0.3-2.4-0.5-4.6-0.8-6.6c-0.1-0.8-0.2-1.5-0.3-2.2c-1.9,1.2-5.1,3.5-9.8,8
			C525,683.3,529.1,683.9,532.8,683.6z M410,662.7c-0.3-0.2-0.7-0.4-1-0.6c-3.6,2.7-7.2,5.4-10.7,8c0.6,0.1,1.2,0.2,1.7,0.2
			c2.8-2.5,5.8-4.8,9.1-7C409.4,663.1,409.7,662.9,410,662.7z M254.5,653.7c-19.6-11.3-27.1-11.8-29.2-11.7c0,0.7,0,2.2,0.7,4.7
			c1.9,7,6.8,13,13.9,17.1c3.6-2.7,8.8-4.5,16-5.6C255.3,656.9,254.8,655.5,254.5,653.7z M458.3,674c-0.6-0.8-2-2.1-4.4-3.3
			c-0.7,0.3-1.4,0.6-2.1,0.9c0.5,1.2,1,2.5,1.4,3.8C456,675,457.5,674.4,458.3,674z M305.4,658.5c1.8-1.1,3.6-2.3,5.4-3.7
			c-2.4,1.2-4.9,2.3-7.5,3.5C304,658.4,304.7,658.4,305.4,658.5z M224.7,671.2c-6.4-5.6-10.9-12.6-13-20.6c-0.5-2-0.9-3.9-1-5.6
			c-7.4,8.1-11.3,15.3-11.8,19.9c-0.2,1.9-0.6,4.8,6.6,6.4C211.8,672.6,218.2,672.4,224.7,671.2z M435.9,673.4
			c-3.1-0.4-6.4-1.2-9.9-2.4c-1.6,0.6-3.1,1.4-4.7,2.2c5.9,0.8,11.3,1.4,15.9,1.9c-0.2-0.5-0.4-1.1-0.7-1.6
			C436.4,673.5,436.1,673.5,435.9,673.4z M322.1,683.6c0.4-0.3,0.8-0.6,1.1-0.9c3.2-2.6,6.5-4.8,10-6.3c-8-0.9-15.8-1.8-23.4-2.5
			c3.6,2.8,7.2,5.7,10.9,8.6C321.2,682.8,321.6,683.2,322.1,683.6z M388,683.7c-0.2,0-0.4-0.1-0.6-0.1c0.2,0.1,0.3,0.2,0.5,0.2
			C388,683.7,388,683.7,388,683.7z M442.6,691.1c-0.1-0.2-0.1-0.4-0.2-0.7c-1-0.1-2-0.1-3-0.2c-8.8-0.7-20.5-2.3-34.2-4.2
			c-1.3,1.4-2.6,2.9-3.7,4.5c4.6,2.4,9.5,5,14.8,7.8c2.1,1.1,4.2,2.2,6.3,3.3C428.2,697.4,435,693.9,442.6,691.1z M533.6,710.2
			c-3.3-0.6-6.7-1.5-10.2-2.8c-6.5-2.3-13.1-4-19.9-5.2c-7.8,8.9-15.8,18.7-23.3,27.8c15.3,6.3,33.4,11.1,43.5,3.7
			C530.1,729,532.7,720,533.6,710.2z M466.3,723.6c5.9-7.3,12.6-15.5,19.4-23.4c-9-0.4-17.9,0.2-26.1,1.8c0.4,6.3-0.3,12.3-2.7,17.1
			C459.8,720.5,463,722,466.3,723.6z M311.4,694C311.3,694,311.3,694,311.4,694c-5.9-4.8-11.8-9.4-17.5-13.7
			c-14.1,4.8-27.7,5.6-39.1,4c16,18.3,31.3,24.1,45.7,23.9C303.6,703.3,307.3,698.5,311.4,694z M338.3,690.3
			c2.3-0.1,4.4-0.9,6.3-2.3C342.4,688.5,340.3,689.3,338.3,690.3z M377.3,695.3c-2.6-1.2-5-2.2-7.3-3.1
			c-8.6,6.7-16.1,12.3-22.1,16.2c8.2,3,15.2,7.1,21.7,11.6c2.9-7.5,6.1-15.2,10-22.6C378.8,696.7,378,696,377.3,695.3z M443.4,712.4
			c0.8-1.3,1.2-3.4,1.3-6.2c-2.5,1-4.9,2.1-7,3.3C439.6,710.5,441.5,711.4,443.4,712.4z M399,712.4c-2.6-1.8-5.2-3.6-7.6-5.4
			c-1.5,3-2.9,6-4.2,9C389.6,714.1,393.5,712.1,399,712.4z M325.4,702.7c-0.4-0.2-0.9-0.4-1.3-0.6c-0.5,0.6-1,1.1-1.6,1.7
			C323.5,703.4,324.5,703,325.4,702.7z M435.5,729c-0.1,0-0.1,0-0.2,0c-3.4-0.4-7.1-1.4-11.1-2.9c3.7,3.7,7.1,7.8,9.9,12.1
			c1.5,2.4,3.1,5.2,4.3,8.1c6.3-1.5,12.8-5.7,18-11c-4.5-2.2-8.9-4.3-13.2-6.4C440.9,729.3,438.4,729.4,435.5,729z M405.1,729.7
			c-0.6-0.4-1.3-0.7-1.9-1c-1.9-1-5.5-2.3-7.1-0.8c-2.5,2.4-5,4.6-7.4,6.7c6,4.7,12.1,9,19,12.5C405.1,742,404.2,736.1,405.1,729.7z
			 M363.1,733.7c-6.6-4.7-13.4-8.9-21.4-11.7c-3.4-1.2-5.6-0.6-7.7,2.2c-3.1,4.1-4.5,10.9-4.4,17.8
			C344.1,740.5,354.5,737.8,363.1,733.7z M314.7,742.7c-0.2-7.9,1.3-15.9,4.4-22.3c-3.1,0.8-6.3,1.5-9.6,1.9
			c-3.4,6.8-4.6,12.7-3.2,16.2C307.4,741.3,311,742.4,314.7,742.7z M339.1,762.5c1.2,0.1,2.5,0,4.1-0.6c4.6-1.5,8.3-4.8,11.5-9.4
			c-6.4,1.8-13.7,3.1-22.1,4c0.4,0.9,0.9,1.7,1.5,2.4C335.6,761.1,337.2,762.2,339.1,762.5z"/>
	</g>
	<g>
		<path class="st98" d="M407.9,766.4c-13.3,0-26.7-3.7-40.3-11.2c-0.4-0.2-0.7-0.4-1.1-0.6c-11.6,1.2-22.8-1.6-33.4-8.5
			c-6.1-3.9-11.3-8.7-15.5-14.2c-14.2,6.9-26.4,8.9-37,6.3c-15.8-3.9-32-13.6-44.5-26.6c-12.7-13.3-19.1-27.3-17.3-38.4
			c0.7-4.4,2.6-8.2,5.6-11.2c-0.1-0.8-0.3-1.5-0.4-2.3c-2.5,0.9-4.8,2.1-6.8,3.8c-12.3,10.1-12.3,31.9-12.3,32.1l-14.9,0.3
			c0-1.2-0.3-29.1,17.7-43.9c4.3-3.5,9.1-5.9,14.5-7.3c-0.6-13.7,1.9-27.5,11.7-36.6c12.4-11.5,32.7-12.8,62-3.7
			c8.6-13.2,19.2-20.3,29.2-23c1.5-3.9,5.8-9.6,18.5-8.1c18.8,2.2,32.6,10.1,45.7,18.1c4.6-15.6,10.6-29.1,24.2-35.5
			c9.7-4.5,19.4-2.6,26.6,5.2c2.4,2.6,4.4,5.8,6.1,9.4c8.5-0.9,20.4,0,26.1,10.6c3.2,5.9,3.5,13.3,1.7,21.2
			c19.8-0.4,38.5,8.3,57.2,26.7c1.9,1.8,3.3,3.6,4.4,5.3c10.4-4.7,21.3-7.2,33.1-6.1c13.1,1.2,20.9,8.7,20.9,20.3
			c0,16.5-16,37.1-31.1,50.8c-20.5,18.6-44,30.4-64.6,32.3c-3.7,0.3-7.2,0.4-10.5,0.2c-11.6,10-27.2,20.8-47.1,28.8
			C427.1,764.4,417.5,766.4,407.9,766.4z M387.8,747.9c13.5,4.6,27.8,5.1,43.3-1.2c12.9-5.2,24.4-12,34.3-19.4
			c-2.3-1-4.6-2.2-6.7-3.5l-1.4,4.2c-0.3-0.1-12.1-4.1-29.4-10.6c-2.5,1.9-5,3.7-7.5,5.3c-7.1,7.1-14.5,13.6-21.8,18.7
			C394.9,743.9,391.3,746.1,387.8,747.9z M341.5,717.1c9.1,8.3,18.3,15.9,27.9,21.9c5-1.1,10.2-3.3,15.6-6.5
			c-5.6-1.1-11.6-3.6-18-7.8c-5.2-3.4-10.9-8.3-16.6-14.4c-2,1.6-3.9,3.1-5.9,4.6C343.5,715.7,342.5,716.4,341.5,717.1z
			 M241.2,694.7c1.6,2.1,3.5,4.4,5.6,6.6c10.6,11,24.2,19.2,37.3,22.4c6.9,1.7,15.6,0.1,26-4.8c-0.4-1-0.8-2-1.1-3
			c-1.2-3.8-2-7.6-2.2-11.3c-13.5-13-26.6-24.8-39.2-31C256.1,688.5,248.4,694.7,241.2,694.7C241.3,694.7,241.3,694.7,241.2,694.7z
			 M361.9,700.8c4.6,4.9,9.2,8.8,13.2,11.5c13.4,8.7,22,7.9,35.9-1.1c0,0,0.1-0.1,0.1-0.1c-12.9-5-27.2-10.8-41.5-17.1
			C367,696.2,364.4,698.5,361.9,700.8z M458,704.7c6.3,5.7,12.8,9.7,20.8,11.4c15.2-14.3,24.6-29.3,27.3-39.2c0.1-0.3,0.2-0.7,0.2-1
			c-1.1-0.5-2.2-1.1-3.4-1.6C489,685.3,474.5,696.6,458,704.7z M520.2,681.8c-3,10.2-10.2,22.1-20.3,33.8
			c15.3-3.3,32.6-12.8,47.8-26.4C540.7,688.9,531.7,686.4,520.2,681.8z M321.8,698.4c0.6,0.6,1.2,1.2,1.8,1.8
			c2.3,2.2,4.5,4.4,6.8,6.6c1.7-1.2,3.4-2.4,5.1-3.7c1.7-1.3,3.5-2.7,5.2-4c-2.4-3.1-4.8-6.3-7.1-9.6c-2.9,0.2-5.7,0.2-8.4-0.1
			c-0.4,0.6-0.8,1.1-1.1,1.8C322.9,693.2,322.2,695.7,321.8,698.4z M381.4,682.8c11.4,4.9,22.8,9.5,33.2,13.6
			c-4.9-7.4-8-17.2-8.7-27.6c-0.4-0.4-0.8-0.8-1.2-1.2c-2.5,0-5.1-0.1-7.6-0.1C392.1,672.5,386.8,677.6,381.4,682.8z M349.3,685.7
			c1,1.3,1.9,2.6,2.9,3.8c0.9-0.8,1.7-1.5,2.6-2.3c-1.6-0.7-3.1-1.4-4.7-1.9C349.8,685.4,349.6,685.5,349.3,685.7z M278.9,662.9
			c10.4,5.9,20.5,14.5,30.8,24c0.3-0.7,0.7-1.5,1-2.2c-0.3-0.2-0.5-0.3-0.8-0.5c-7-4.4-10.2-11.1-8.5-17.4c0.6-2.3,1.9-4.8,4.5-7
			C297.3,661.6,288.1,662.7,278.9,662.9z M425.6,667.9c4.1,4.6,7.9,9.1,11.5,13.4c2.3-2.8,4.5-5.6,6.7-8.3c1.4-1.7,2.8-3.4,4.2-5
			C440.6,668,433.1,668,425.6,667.9z M241.2,669.7c0.6,2.4,1.1,4.5,1.6,6.5c0.2,0.8,0.4,1.5,0.5,2.2c1.8-1.4,4.6-4.1,8.8-9.1
			C249,669.1,244.8,669,241.2,669.7z M365.6,675.8c0.4,0.2,0.7,0.3,1.1,0.5c3.3-3.1,6.5-6.2,9.7-9.3c-0.6,0-1.2,0-1.7,0
			c-2.5,2.8-5.2,5.5-8.2,8.1C366.1,675.3,365.9,675.6,365.6,675.8z M521,666.1c20.8,8.9,28.4,8.5,30.4,8.1c0-0.7-0.3-2.2-1.2-4.5
			c-2.7-6.8-8.3-12.1-15.9-15.4c-3.2,3.1-8.2,5.5-15.2,7.5C519.9,663,520.6,664.4,521,666.1z M316.3,670.4c0.7,0.7,2.2,1.8,4.8,2.8
			c0.6-0.4,1.3-0.8,2-1.2c-0.6-1.2-1.3-2.4-1.9-3.6C318.5,669.1,317,669.9,316.3,670.4z M470,667.5c-1.7,1.3-3.3,2.8-4.9,4.3
			c2.3-1.5,4.6-2.9,7-4.4C471.4,667.4,470.7,667.4,470,667.5z M548.6,645.2c7,4.8,12.3,11.2,15.4,18.9c0.8,1.9,1.3,3.7,1.7,5.4
			c6.4-8.9,9.4-16.5,9.4-21.1c0-1.9,0-4.9-7.3-5.5C561.2,642.3,554.8,643.2,548.6,645.2z M338.6,668.2c3.1,0,6.5,0.4,10.1,1.2
			c1.5-0.8,3-1.8,4.4-2.8c-6-0.1-11.4-0.1-16,0c0.3,0.5,0.6,1,0.9,1.5C338.1,668.2,338.4,668.2,338.6,668.2z M450.3,644.6
			c-0.3,0.4-0.7,0.7-1,1.1c-2.9,3-5.9,5.5-9.1,7.5c8,0,15.9-0.1,23.5-0.3c-3.9-2.3-7.8-4.8-11.8-7.3
			C451.4,645.2,450.9,644.9,450.3,644.6z M384.9,652.4c0.2,0,0.4,0,0.6,0c-0.2-0.1-0.3-0.1-0.5-0.2
			C384.9,652.3,384.9,652.3,384.9,652.4z M329.8,651.4c0.1,0.2,0.2,0.4,0.2,0.6c1-0.1,2-0.1,3-0.2c8.8-0.3,20.6-0.2,34.4,0.1
			c1.1-1.6,2.2-3.2,3.2-4.9c-4.9-1.8-10.1-3.8-15.6-5.9c-2.2-0.8-4.4-1.7-6.7-2.5C343.4,643.5,337.1,647.8,329.8,651.4z
			 M237.2,643.5c3.3,0.2,6.8,0.7,10.5,1.5c6.7,1.5,13.5,2.4,20.4,2.8c6.7-9.8,13.5-20.4,19.8-30.4c-15.9-4.5-34.5-7-43.6,1.5
			C238.5,624.3,236.9,633.6,237.2,643.5z M302.5,622.1c-5,7.9-10.7,16.9-16.4,25.6c9-0.7,17.7-2.3,25.7-4.9
			c-1.2-6.2-1.2-12.2,0.7-17.3C309.2,624.3,305.9,623.2,302.5,622.1z M459.8,632.9C459.8,632.9,459.8,632.9,459.8,632.9
			c6.5,4.1,12.8,7.9,19,11.5c13.4-6.5,26.8-8.9,38.4-8.6c-18-16.2-33.9-20.2-48.3-18.3C466.4,622.8,463.3,628,459.8,632.9z
			 M433.5,639.8c-2.3,0.4-4.3,1.4-6,3C429.6,642.1,431.6,641.1,433.5,639.8z M394.2,639.5c2.7,0.8,5.3,1.6,7.7,2.2
			c7.8-7.7,14.5-14.2,20-18.7c-8.5-2-16-5.3-22.9-9c-2,7.8-4.3,15.8-7.3,23.6C392.5,638.3,393.4,638.9,394.2,639.5z M326.4,630.4
			c-0.6,1.4-0.8,3.6-0.6,6.3c2.4-1.3,4.6-2.7,6.6-4.1C330.5,631.9,328.5,631.2,326.4,630.4z M370.6,625.2c2.8,1.4,5.6,2.9,8.2,4.4
			c1.1-3.1,2.1-6.3,3.1-9.4C379.7,622.3,376,624.7,370.6,625.2z M444.8,626c0.5,0.1,0.9,0.3,1.4,0.4c0.5-0.6,0.9-1.2,1.3-1.8
			C446.6,625,445.7,625.5,444.8,626z M332.4,613c0.1,0,0.1,0,0.2,0c3.4,0,7.2,0.5,11.4,1.6c-4.1-3.2-8-6.9-11.2-10.8
			c-1.8-2.2-3.7-4.8-5.2-7.6c-6.1,2.2-12,7.1-16.6,13c4.8,1.6,9.4,3.2,13.8,4.8C326.9,613.4,329.4,613,332.4,613z M362.5,608.6
			c0.7,0.3,1.3,0.6,2,0.8c2,0.7,5.7,1.7,7.1-0.1c2.2-2.7,4.4-5.2,6.6-7.5c-6.6-3.9-13.1-7.5-20.4-10.1
			C361,596.5,362.6,602.3,362.5,608.6z M403.6,599.7c7.1,3.9,14.4,7.2,22.6,9.1c3.6,0.8,5.6-0.1,7.4-3.1c2.5-4.4,3.2-11.4,2.3-18.2
			C421.7,590.7,411.7,594.6,403.6,599.7z M450.7,585c1.1,7.8,0.6,15.9-1.7,22.7c3-1.2,6.1-2.2,9.3-3.1c2.5-7.2,3.1-13.2,1.3-16.5
			C458.1,585.4,454.3,584.8,450.7,585z M424,568.3c-1.2,0-2.5,0.3-4,1c-4.4,2.1-7.7,5.8-10.3,10.7c6.2-2.5,13.2-4.7,21.4-6.7
			c-0.5-0.8-1.1-1.6-1.7-2.3C427.7,569.2,426,568.3,424,568.3z"/>
	</g>
</g>
<g>
	<polygon class="st95" points="580.8,696.2 527.6,993.5 381.9,1056 381.9,1056.1 381.9,753.1 381.9,753.1 382,753 	"/>
	<polygon class="st94" points="381.9,753.1 381.9,1056.1 381.8,1056 236.2,993.5 183,696.2 381.8,753 381.8,753.1 	"/>
	<polygon class="st95" points="381.9,753 381.9,753.1 381.8,753.1 381.8,753 183,696.2 158.2,689.1 64.9,624.9 178.4,670.6 
		381.8,753 	"/>
	<polygon class="st94" points="698.9,624.9 605.6,689.1 580.8,696.2 382,753 381.9,753.1 381.9,753.1 381.9,753 381.9,753 
		585.4,670.6 	"/>
</g>
<g>
	<g>
		<path class="st99" d="M495.2,634.7c0,0,8.3-7,23.1-2.4c14.8,4.6,2,7.6,5.7,11.4s3,7.7-3.5,12.2c-6.5,4.4-10.7-5-15.9-3.3
			c-5.2,1.7-24.2-3.5-16.8-10.7C495.2,634.7,491.5,636.7,495.2,634.7z"/>
		<path class="st100" d="M522.1,640.3c0,0-13.1-13.2-33.1,3c0,0-1.9,1.7-0.2,1.2c1.6-0.5,8.6-5.8,15-5.8c6.4-0.1,10.3,4.1,15.3,6.5
			c5.1,2.4,3.8,1.2,2.1-0.9c-1.7-2.1,2.3-2.5,1.6-3.2C522.1,640.3,522.1,640.3,522.1,640.3z"/>
		<path class="st100" d="M503,637.6c0,0,7.5,9.9,5.2,10.4s-1.9-4.8-5-6.7S497.1,636.8,503,637.6z"/>
	</g>
	<g>
		<path class="st101" d="M416.5,633.5c0.8-7.9-5-15-12.9-15.8c-7.9-0.8-15,5-15.8,12.9c-0.8,7.9,5,15,12.9,15.8
			C408.6,647.2,415.6,641.4,416.5,633.5z M392.6,631c0.5-5.3,5.2-9.1,10.5-8.5c5.3,0.5,9.1,5.2,8.5,10.5c-0.5,5.3-5.2,9.1-10.5,8.5
			C395.9,641,392.1,636.3,392.6,631z"/>
		
			<ellipse transform="matrix(0.1017 -0.9948 0.9948 0.1017 -267.5019 967.793)" class="st0" cx="402.1" cy="632" rx="9.6" ry="9.6"/>
	</g>
	<g>
		<path class="st101" d="M503,704.6c1.4-14.1-8.8-26.7-22.9-28.1c-14.1-1.4-26.7,8.8-28.1,22.9c-1.4,14.1,8.8,26.7,22.9,28.1
			C488.9,728.9,501.5,718.7,503,704.6z M460.5,700.2c1-9.4,9.3-16.2,18.7-15.2c9.4,1,16.2,9.3,15.2,18.7c-1,9.4-9.3,16.2-18.7,15.2
			C466.4,718,459.6,709.6,460.5,700.2z"/>
		<path class="st0" d="M475.7,718.9c-9.4-1-16.2-9.3-15.2-18.7c1-9.4,9.3-16.2,18.7-15.2c9.4,1,16.2,9.3,15.2,18.7
			C493.5,713.1,485.1,719.9,475.7,718.9z"/>
	</g>
	<g>
		<path class="st101" d="M527.4,595.9c0.9-9.1-5.7-17.3-14.8-18.2c-9.1-0.9-17.3,5.7-18.2,14.8c-0.9,9.1,5.7,17.3,14.8,18.2
			C518.3,611.6,526.5,605,527.4,595.9z M499.9,593.1c0.6-6,6-10.5,12.1-9.8c6.1,0.6,10.5,6,9.8,12.1c-0.6,6.1-6,10.5-12.1,9.8
			C503.7,604.5,499.3,599.1,499.9,593.1z"/>
		
			<ellipse transform="matrix(0.1017 -0.9948 0.9948 0.1017 -132.1382 1042.0269)" class="st0" cx="510.9" cy="594.2" rx="11" ry="11"/>
	</g>
	<g>
		<path class="st101" d="M322.6,660.8c1.2-12-7.5-22.8-19.6-24c-12-1.2-22.8,7.5-24,19.6c-1.2,12,7.5,22.8,19.6,24
			C310.6,681.6,321.3,672.8,322.6,660.8z M286.3,657.1c0.8-8,8-13.8,15.9-13c8,0.8,13.8,8,13,15.9c-0.8,8-8,13.8-16,13
			C291.3,672.2,285.5,665.1,286.3,657.1z"/>
		
			<ellipse transform="matrix(0.1017 -0.9948 0.9948 0.1017 -384.9434 890.8406)" class="st0" cx="300.8" cy="658.6" rx="14.5" ry="14.5"/>
	</g>
	<g>
		<path class="st99" d="M452,603.6c0,0,2.4-6.7,12.3-8.8c9.9-2.2,3.6,3.6,7,4.7c3.4,1,4.2,3.5,2,8.1s-7.7,0.6-10.1,3.3
			c-2.4,2.6-14.9,5.8-13-0.6S450.5,605.9,452,603.6z"/>
		<path class="st100" d="M469.1,598.1c0,0-11.7-3.3-17.8,12.4c0,0-0.5,1.6,0.3,0.8c0.8-0.8,3-6.1,6.6-8.2c3.6-2.1,7.2-1,10.8-1.3
			c3.6-0.3,2.5-0.6,0.9-1.2c-1.6-0.6,0.5-2.2-0.1-2.4C469.1,598.1,469.1,598.1,469.1,598.1z"/>
		<path class="st100" d="M457.3,602.7c0,0,7.5,3.2,6.4,4.2c-1.1,1-2.7-2.1-5-2.2S453.7,604.1,457.3,602.7z"/>
	</g>
	<g>
		<path class="st99" d="M372.4,672.9c0,0,5,5.1,2.7,14.9c-2.3,9.9-4.8,1.7-7.2,4.3c-2.4,2.6-4.9,2.3-8.1-1.7
			c-3.2-4,2.7-7.2,1.4-10.5s1.1-16,6.2-11.5C372.4,672.9,370.9,670.6,372.4,672.9z"/>
		<path class="st100" d="M370,690.7c0,0,8-9.2-3.5-21.5c0,0-1.2-1.1-0.8-0.1c0.4,1,4.2,5.3,4.5,9.5s-2.2,6.9-3.5,10.3
			c-1.3,3.4-0.6,2.5,0.7,1.3c1.3-1.2,1.8,1.4,2.2,0.9C370,690.7,370,690.7,370,690.7z"/>
		<path class="st100" d="M370.9,678.1c0,0-6.1,5.4-6.6,3.9s3-1.5,4.1-3.6S371.1,674.3,370.9,678.1z"/>
	</g>
	<g>
		<path class="st99" d="M611.3,667.6c0,0,0.2,7.1-8.1,12.8c-8.4,5.7-4.7-2-8.2-1.7c-3.5,0.3-5.2-1.6-4.8-6.7
			c0.3-5.1,6.9-3.5,8.1-6.8c1.2-3.3,11.6-11,12.3-4.3C611.3,667.6,611.8,664.9,611.3,667.6z"/>
		<path class="st100" d="M597.5,679.2c0,0,12.1-1.4,11.9-18.2c0,0-0.1-1.6-0.5-0.6c-0.4,1-0.5,6.7-3.1,10.1
			c-2.5,3.3-6.3,3.6-9.6,5.2s-2.1,1.5-0.4,1.5c1.8,0,0.4,2.2,1,2.1C597.5,679.2,597.5,679.2,597.5,679.2z"/>
		<path class="st100" d="M606.7,670.5c0,0-8.2-0.2-7.5-1.5c0.7-1.4,3.2,1,5.5,0.1C606.9,668.3,609.5,667.8,606.7,670.5z"/>
	</g>
	<g>
		<path class="st99" d="M380.8,592.7c0,0,0.2,7.1-8.1,12.8c-8.4,5.7-4.7-2-8.2-1.7c-3.5,0.3-5.2-1.6-4.8-6.7
			c0.3-5.1,6.9-3.5,8.1-6.8c1.2-3.3,11.6-11,12.3-4.3C380.8,592.7,381.3,589.9,380.8,592.7z"/>
		<path class="st100" d="M367,604.2c0,0,12.1-1.4,11.9-18.2c0,0-0.1-1.6-0.5-0.6c-0.4,1-0.5,6.7-3.1,10.1c-2.5,3.3-6.3,3.6-9.6,5.2
			c-3.3,1.6-2.1,1.5-0.4,1.5s0.4,2.2,1,2.1C367,604.2,367,604.2,367,604.2z"/>
		<path class="st100" d="M376.2,595.5c0,0-8.2-0.2-7.5-1.5c0.7-1.4,3.2,1,5.5,0.1C376.4,593.3,378.9,592.8,376.2,595.5z"/>
	</g>
	<g>
		<path class="st99" d="M462.2,725.9c0,0,0.2,7.1-8.1,12.8c-8.4,5.7-4.7-2-8.2-1.7c-3.5,0.3-5.2-1.6-4.8-6.7
			c0.3-5.1,6.9-3.5,8.1-6.8c1.2-3.3,11.6-11,12.3-4.3C462.2,725.9,462.6,723.2,462.2,725.9z"/>
		<path class="st100" d="M448.4,737.4c0,0,12.1-1.4,11.9-18.2c0,0-0.1-1.6-0.5-0.6c-0.4,1-0.5,6.7-3.1,10.1
			c-2.5,3.3-6.3,3.6-9.6,5.2c-3.3,1.6-2.1,1.5-0.4,1.5s0.4,2.2,1,2.1C448.4,737.4,448.4,737.4,448.4,737.4z"/>
		<path class="st100" d="M457.5,728.7c0,0-8.2-0.2-7.5-1.5c0.7-1.4,3.2,1,5.5,0.1C457.7,726.5,460.3,726.1,457.5,728.7z"/>
	</g>
</g>
<g>
	<path class="st98" d="M80.5,1034.3l612-363.1c0.7-0.4,1.6-0.7,2.4-0.7h16.6c3,0,5.2,2.7,4.7,5.6l-1.6,8.6c-0.3,1.4-1.1,2.6-2.3,3.3
		l-627,354.5c-2.2,1.2-5,0.6-6.4-1.6h0C77.4,1038.7,78.1,1035.7,80.5,1034.3z"/>
	<path class="st98" d="M40.4,982.4l695.8-149.3c0.8-0.2,1.7-0.1,2.5,0.1l15.7,5.3c2.8,1,4.1,4.2,2.6,6.8l-4.3,7.7
		c-0.7,1.2-1.9,2.1-3.3,2.4L42.3,991.7c-2.5,0.5-4.9-1.1-5.5-3.5l0,0C36.1,985.6,37.7,982.9,40.4,982.4z"/>
</g>
</svg>
